<svg width="320" height="200" viewBox="0 0 320 200" fill="none" xmlns="http://www.w3.org/2000/svg">
<path d="M222.284 25.7823C112.986 -39.8434 55.3394 56.8121 54.4515 56.7959C29.2252 56.334 12.087 73.5599 7.34048 93.717C1.60245 118.085 10.2852 135.069 12.4927 139.499C13.061 140.64 12.8792 141.992 13.1042 143.191C20.1472 180.746 47.5927 188.235 63.2859 188.235L270.867 188.235C273.075 188.235 301.783 185.292 306.2 149.837C306.347 148.658 307.486 147.874 308.06 146.893C327.763 113.243 294.053 81.0692 293.686 77.4816C284.852 -8.914 223.564 26.5507 222.284 25.7823Z" fill="#FF1478" fill-opacity="0.2"/>
<path d="M274.529 35.1303V183.975C274.531 184.727 274.392 185.472 274.121 186.167C273.851 186.862 273.453 187.494 272.951 188.027C272.45 188.559 271.854 188.981 271.198 189.269C270.542 189.558 269.839 189.706 269.128 189.706H53.4593C52.955 189.706 52.4533 189.631 51.9691 189.482C50.8397 189.14 49.8466 188.418 49.1408 187.424C48.4349 186.429 48.055 185.219 48.0586 183.975V117.551C48.0586 117.213 48.0586 116.877 48.0586 116.542V53.1931C48.1848 53.1931 48.308 53.1931 48.4341 53.2117C53.2686 44.4863 59.7312 36.4691 67.5022 29.4117H269.128C269.838 29.4117 270.54 29.5597 271.195 29.847C271.85 30.1344 272.446 30.5557 272.947 31.0867C273.449 31.6177 273.847 32.2481 274.118 32.9419C274.389 33.6357 274.529 34.3793 274.529 35.1303Z" fill="white"/>
<path opacity="0.7" d="M67.5781 71.4987H260.348" stroke="#3F3D56" stroke-miterlimit="10" stroke-linecap="round"/>
<path opacity="0.7" d="M67.5781 107.26H260.348" stroke="#3F3D56" stroke-miterlimit="10" stroke-linecap="round"/>
<path opacity="0.7" d="M67.5781 143.02H260.348" stroke="#3F3D56" stroke-miterlimit="10" stroke-linecap="round"/>
<path opacity="0.7" d="M67.5781 179.672H260.348" stroke="#3F3D56" stroke-miterlimit="10" stroke-linecap="round"/>
<path opacity="0.1" d="M273.059 200C295.8 200 314.235 198.683 314.235 197.059C314.235 195.434 295.8 194.118 273.059 194.118C250.318 194.118 231.882 195.434 231.882 197.059C231.882 198.683 250.318 200 273.059 200Z" fill="#FF1478"/>
<path d="M178.309 48.4174H148.19C145.254 48.4174 142.874 50.8064 142.874 53.7534C142.874 56.7003 145.254 59.0893 148.19 59.0893H178.309C181.245 59.0893 183.625 56.7003 183.625 53.7534C183.625 50.8064 181.245 48.4174 178.309 48.4174Z" fill="#3F3D56"/>
<path opacity="0.1" d="M177.427 50.2054H149.067C147.113 50.2054 145.528 51.7952 145.528 53.7563C145.528 55.7173 147.113 57.3071 149.067 57.3071H177.427C179.382 57.3071 180.966 55.7173 180.966 53.7563C180.966 51.7952 179.382 50.2054 177.427 50.2054Z" fill="black"/>
<path d="M176.93 50.5931H170.431C168.692 50.5931 167.283 52.0082 167.283 53.7537V53.7567C167.283 55.5023 168.692 56.9173 170.431 56.9173H176.93C178.669 56.9173 180.079 55.5023 180.079 53.7567V53.7537C180.079 52.0082 178.669 50.5931 176.93 50.5931Z" fill="#FF1478"/>
<path d="M173.584 55.7309C174.671 55.7309 175.553 54.846 175.553 53.7544C175.553 52.6628 174.671 51.7779 173.584 51.7779C172.496 51.7779 171.615 52.6628 171.615 53.7544C171.615 54.846 172.496 55.7309 173.584 55.7309Z" fill="white"/>
<path d="M178.309 118.767H148.19C145.254 118.767 142.874 121.156 142.874 124.103C142.874 127.05 145.254 129.439 148.19 129.439H178.309C181.245 129.439 183.625 127.05 183.625 124.103C183.625 121.156 181.245 118.767 178.309 118.767Z" fill="#3F3D56"/>
<path opacity="0.1" d="M177.427 120.555H149.067C147.113 120.555 145.528 122.145 145.528 124.106C145.528 126.067 147.113 127.657 149.067 127.657H177.427C179.382 127.657 180.966 126.067 180.966 124.106C180.966 122.145 179.382 120.555 177.427 120.555Z" fill="black"/>
<path d="M176.93 120.943H170.431C168.692 120.943 167.283 122.358 167.283 124.104V124.107C167.283 125.852 168.692 127.267 170.431 127.267H176.93C178.669 127.267 180.079 125.852 180.079 124.107V124.104C180.079 122.358 178.669 120.943 176.93 120.943Z" fill="#FF1478"/>
<path d="M173.584 126.081C174.671 126.081 175.553 125.196 175.553 124.104C175.553 123.013 174.671 122.128 173.584 122.128C172.496 122.128 171.615 123.013 171.615 124.104C171.615 125.196 172.496 126.081 173.584 126.081Z" fill="white"/>
<path d="M178.309 153.944H148.19C145.254 153.944 142.874 156.333 142.874 159.28C142.874 162.227 145.254 164.616 148.19 164.616H178.309C181.245 164.616 183.625 162.227 183.625 159.28C183.625 156.333 181.245 153.944 178.309 153.944Z" fill="#3F3D56"/>
<path opacity="0.1" d="M177.427 155.727H149.067C147.113 155.727 145.528 157.317 145.528 159.278C145.528 161.239 147.113 162.829 149.067 162.829H177.427C179.382 162.829 180.966 161.239 180.966 159.278C180.966 157.317 179.382 155.727 177.427 155.727Z" fill="black"/>
<path d="M176.93 156.116H170.431C168.692 156.116 167.283 157.532 167.283 159.277V159.28C167.283 161.026 168.692 162.441 170.431 162.441H176.93C178.669 162.441 180.079 161.026 180.079 159.28V159.277C180.079 157.532 178.669 156.116 176.93 156.116Z" fill="#FF1478"/>
<path d="M173.584 161.257C174.671 161.257 175.553 160.372 175.553 159.281C175.553 158.189 174.671 157.304 173.584 157.304C172.496 157.304 171.615 158.189 171.615 159.281C171.615 160.372 172.496 161.257 173.584 161.257Z" fill="white"/>
<path d="M178.309 83.5952H148.19C145.254 83.5952 142.874 85.9842 142.874 88.9312C142.874 91.8781 145.254 94.2671 148.19 94.2671H178.309C181.245 94.2671 183.625 91.8781 183.625 88.9312C183.625 85.9842 181.245 83.5952 178.309 83.5952Z" fill="#3F3D56"/>
<path opacity="0.1" d="M177.427 85.3774H149.067C147.113 85.3774 145.528 86.9672 145.528 88.9282C145.528 90.8893 147.113 92.4791 149.067 92.4791H177.427C179.382 92.4791 180.966 90.8893 180.966 88.9282C180.966 86.9672 179.382 85.3774 177.427 85.3774Z" fill="black"/>
<path d="M149.564 92.0942H156.062C157.801 92.0942 159.211 90.6791 159.211 88.9336V88.9306C159.211 87.185 157.801 85.77 156.062 85.77H149.564C147.824 85.77 146.415 87.185 146.415 88.9306V88.9336C146.415 90.6791 147.824 92.0942 149.564 92.0942Z" fill="#FF1478"/>
<path d="M152.911 90.9073C153.998 90.9073 154.88 90.0224 154.88 88.9308C154.88 87.8392 153.998 86.9543 152.911 86.9543C151.823 86.9543 150.942 87.8392 150.942 88.9308C150.942 90.0224 151.823 90.9073 152.911 90.9073Z" fill="white"/>
<path d="M102.909 53.7049C102.909 56.1196 102.286 58.4931 101.098 60.5931C99.9109 62.6932 98.2008 64.4479 96.1352 65.6856L95.9459 65.7983L95.5882 65.9972L95.2482 66.1752L95.195 66.2019C95.053 66.2732 94.9082 66.3414 94.7603 66.4067C94.2895 66.6222 93.8068 66.8105 93.3146 66.9706C92.9923 67.0745 92.6671 67.1694 92.3389 67.2496C91.6654 67.4149 90.9805 67.529 90.29 67.5908C89.8701 67.6294 89.4473 67.6502 89.0186 67.6502C88.508 67.6496 87.9978 67.6218 87.4901 67.5671H87.4014C87.2269 67.5493 87.0525 67.5256 86.878 67.4988C86.3236 67.4115 85.7747 67.2916 85.2342 67.1397L84.9651 67.0596L84.7286 66.9854L84.6517 66.9587C84.1687 66.7993 83.695 66.613 83.2326 66.4008C82.4381 66.0369 81.6806 65.5966 80.9708 65.0861L80.9353 65.0623L80.9116 65.0445L80.6574 64.8576L80.4652 64.7092C80.0896 64.4156 79.7303 64.1015 79.389 63.7684C79.0697 63.4598 78.7661 63.1363 78.4784 62.798C77.0167 61.0925 75.9877 59.0574 75.4791 56.8664C74.9706 54.6753 74.9976 52.3933 75.5578 50.215C76.1181 48.0367 77.1949 46.0268 78.6965 44.3566C80.1981 42.6864 82.0799 41.4056 84.1814 40.6235C86.2829 39.8413 88.5416 39.5809 90.7651 39.8646C92.9885 40.1483 95.1105 40.9677 96.9502 42.2527C98.7899 43.5378 100.293 45.2504 101.33 47.2446C102.368 49.2387 102.909 51.4552 102.909 53.7049Z" fill="#434175"/>
<path d="M95.5852 65.9546L95.2333 66.0614C95.0356 66.0728 94.8411 66.008 94.6893 65.8804L94.574 65.7706C94.5052 65.688 94.4083 65.634 94.302 65.6192H94.2724C94.2325 65.6276 94.1912 65.6276 94.1512 65.6192C94.1436 65.6222 94.1352 65.6222 94.1276 65.6192C94.1076 65.6064 94.0909 65.5889 94.0791 65.5682C94.0673 65.5475 94.0606 65.5243 94.0596 65.5005C93.9883 65.2345 93.936 64.9638 93.9029 64.6903C93.8855 64.3938 93.8855 64.0965 93.9029 63.8C93.9029 63.5656 93.9029 63.3282 93.9029 63.0937C93.9418 62.8283 93.9645 62.5607 93.9709 62.2924C93.9846 62.0071 93.9578 61.7213 93.891 61.4437C93.8508 61.2901 93.7953 61.1409 93.7255 60.9985C93.6782 60.5979 93.622 60.1972 93.5658 59.8114C93.5244 59.5146 93.4801 59.2179 93.4268 58.9211C93.4395 58.8722 93.4494 58.8227 93.4564 58.7727C93.4885 58.5305 93.4587 58.2841 93.3697 58.0567C93.2808 57.8293 93.1356 57.6284 92.9479 57.4729C92.8336 57.3769 92.7061 57.298 92.5694 57.2384C92.4571 57.1909 92.3418 57.1523 92.2265 57.1138L90.3697 56.5202C90.1953 56.262 90.0297 55.9979 89.8701 55.7278C89.7208 55.486 89.5903 55.233 89.4798 54.9711C90.0842 54.5106 90.497 53.8416 90.6384 53.0934C90.7799 52.3451 90.6399 51.5708 90.2455 50.9202C90.216 50.8727 90.1805 50.8282 90.148 50.7836C90.162 50.5502 90.1349 50.3162 90.0682 50.0922C90.0694 50.0863 90.0694 50.0802 90.0682 50.0744C90.0329 49.888 89.9445 49.7158 89.8139 49.5788L89.7518 49.5105C89.7236 49.4757 89.693 49.443 89.6601 49.4126C89.5352 49.2866 89.4008 49.1705 89.258 49.0653C88.6431 48.6024 87.8182 48.0385 87.0672 47.8515C86.6956 47.7654 86.3094 47.7654 85.9378 47.8515L85.8786 47.8308L85.7693 47.81L85.855 47.8515C85.4583 47.7588 85.0449 47.766 84.6517 47.8723C84.1638 48.0237 83.9923 48.4243 83.7854 48.8635C83.4545 49.5675 82.9446 50.1714 82.3071 50.6145C81.902 50.8934 81.4201 51.1368 81.225 51.5998C81.0298 52.0627 81.1688 52.5287 81.2072 52.9976C81.2616 53.6272 81.1621 54.2607 80.9174 54.843C80.6727 55.4253 80.2901 55.9389 79.8028 56.3392C79.25 56.7844 78.5138 57.1553 78.3925 57.8676C78.3098 58.375 78.5847 58.8618 78.7946 59.3277C79.2352 60.3189 79.386 61.5267 78.8686 62.4734C78.8183 62.5625 78.7651 62.6485 78.7148 62.7316C78.9957 63.0759 79.3061 63.4023 79.6018 63.7169C79.9386 64.0531 80.2929 64.3711 80.6632 64.6696L80.8524 64.8209L81.1037 65.0079L81.1274 65.0286L81.1629 65.0524C81.861 65.5683 82.6076 66.0146 83.3921 66.3849C83.3949 66.3671 83.4009 66.35 83.4099 66.3344C83.407 66.3541 83.407 66.3741 83.4099 66.3938C83.8649 66.6084 84.3318 66.7967 84.8084 66.9577L84.8823 66.9844L85.1158 67.0615L85.3819 67.1417C85.9143 67.2954 86.4554 67.4173 87.0022 67.5067C87.1736 67.5334 87.3451 67.5571 87.5196 67.5749H87.6053C88.1061 67.6297 88.6094 67.6574 89.1132 67.658C89.536 67.658 89.9528 67.6373 90.3668 67.5987C91.0479 67.536 91.7231 67.4199 92.3861 67.2515C92.466 67.2337 92.5458 67.2099 92.6256 67.1862C92.868 67.1209 93.1075 67.0497 93.347 66.9695C93.8326 66.8074 94.3084 66.6171 94.7721 66.3997C94.917 66.3315 95.0678 66.2632 95.2008 66.192L95.254 66.1653L95.5881 65.9843C95.5843 65.9804 95.582 65.9753 95.5814 65.9699C95.5809 65.9645 95.5822 65.9591 95.5852 65.9546ZM83.7381 65.545C83.7396 65.5203 83.7396 65.4955 83.7381 65.4708C83.7306 65.3919 83.7306 65.3124 83.7381 65.2334C83.7473 65.1869 83.7653 65.1425 83.7913 65.1028C83.7913 65.1503 83.7913 65.1978 83.7913 65.2453C83.7927 65.3477 83.7747 65.4494 83.7381 65.545Z" fill="url(#paint0_linear)"/>
<path opacity="0.3" d="M95.5857 65.9747L95.2279 66.0816C95.0289 66.0929 94.8328 66.0294 94.678 65.9035C94.6395 65.8709 94.5982 65.8293 94.5597 65.7937C94.4897 65.7115 94.3916 65.6586 94.2847 65.6453H94.2552C94.2143 65.6541 94.1719 65.6541 94.131 65.6453C94.1234 65.6483 94.115 65.6483 94.1074 65.6453C94.0874 65.6321 94.0707 65.6146 94.0584 65.5941C94.0462 65.5735 94.0386 65.5505 94.0364 65.5266C93.9652 65.2646 93.9128 64.9978 93.8797 64.7283C93.8618 64.4318 93.8618 64.1345 93.8797 63.838C93.8797 63.6065 93.8797 63.372 93.8797 63.1406C93.9186 62.8781 93.9413 62.6135 93.9477 62.3482C93.9614 62.0668 93.9345 61.7849 93.8679 61.5113C93.8249 61.3601 93.7685 61.2131 93.6993 61.0721C93.652 60.6774 93.5929 60.2827 93.5367 59.885C93.4953 59.5882 93.451 59.2914 93.3948 58.9947C93.3948 58.9472 93.4185 58.8997 93.4273 58.8493C93.459 58.6089 93.428 58.3644 93.3373 58.1396C93.2466 57.9149 93.0993 57.7177 92.9099 57.5672C92.7934 57.4721 92.664 57.3942 92.5256 57.3357C92.4132 57.2882 92.295 57.2497 92.1767 57.2111L90.2933 56.6175C90.1189 56.3623 89.9504 56.1011 89.7878 55.837C89.6355 55.5991 89.503 55.3489 89.3916 55.0892C90.0048 54.6482 90.4269 53.9886 90.5714 53.2454C90.716 52.5023 90.5721 51.7318 90.1692 51.0917C90.1396 51.0442 90.1041 51.0026 90.0716 50.9581C90.0856 50.7276 90.0585 50.4965 89.9918 50.2755C89.993 50.2697 89.993 50.2636 89.9918 50.2577C89.9773 50.1864 89.9555 50.1168 89.9267 50.05C89.8762 49.9474 89.8115 49.8525 89.7345 49.768L89.6695 49.6998C89.6412 49.666 89.6106 49.6342 89.5778 49.6048C89.4472 49.4866 89.3079 49.3784 89.161 49.2813C88.5371 48.8243 87.7004 48.2694 86.9376 48.0943C86.561 48.0081 86.17 48.0081 85.7934 48.0943L85.7343 48.0765L85.6249 48.0557L85.7106 48.0972C85.3079 48.0046 84.8888 48.0117 84.4895 48.118C83.9958 48.2664 83.8213 48.6611 83.6025 49.0944C83.269 49.7902 82.7592 50.3858 82.1242 50.8216C81.7133 51.0976 81.2373 51.338 81.0273 51.795C80.8174 52.252 80.9682 52.712 81.0096 53.175C81.0617 53.7999 80.9588 54.4281 80.7101 55.0034C80.4614 55.5787 80.0747 56.0833 79.5845 56.4721C79.0228 56.9113 78.2747 57.2764 78.1535 57.9797C78.0678 58.4813 78.3487 58.962 78.5615 59.422C79.008 60.3984 79.1528 61.5914 78.6354 62.5263C78.5852 62.6123 78.532 62.6984 78.4787 62.7815C78.7645 63.1198 79.0681 63.4433 79.3894 63.7519C79.7307 64.085 80.09 64.3991 80.4656 64.6927L80.6578 64.8411L80.912 65.028L80.9357 65.0458L80.9712 65.0696C81.681 65.5801 82.4385 66.0204 83.233 66.3843C83.2362 66.3676 83.2422 66.3515 83.2507 66.3368C83.2713 66.284 83.295 66.2325 83.3217 66.1825C83.446 66.0031 83.5353 65.8017 83.5848 65.5889C83.5863 65.5642 83.5863 65.5394 83.5848 65.5147C83.5774 65.4368 83.5774 65.3583 83.5848 65.2803C83.5945 65.2348 83.6126 65.1915 83.638 65.1527C83.6705 65.0933 83.7178 65.0369 83.7563 64.9776C83.7778 64.9466 83.7966 64.9139 83.8125 64.8796C83.845 64.9242 83.8745 64.9687 83.9041 65.0162C84.0106 65.1794 84.114 65.3426 84.2175 65.5088C84.3023 65.619 84.3555 65.7503 84.3713 65.8887C84.3548 65.9699 84.3548 66.0537 84.3713 66.135C84.4156 66.2389 84.5634 66.3249 84.5073 66.4318C84.4802 66.4861 84.4661 66.5461 84.4661 66.6069C84.4661 66.6676 84.4802 66.7276 84.5073 66.782C84.545 66.8409 84.5865 66.8974 84.6314 66.9511L84.7083 66.9778L84.9448 67.052L85.2139 67.1321C85.7544 67.284 86.3033 67.4039 86.8578 67.4912C87.0322 67.5179 87.2066 67.5417 87.3811 67.5595H87.4698C87.9775 67.6142 88.4877 67.6419 88.9983 67.6426C89.4271 67.6426 89.8498 67.6218 90.2697 67.5832C90.9602 67.5214 91.6452 67.4073 92.3186 67.2419C92.4014 67.2241 92.4812 67.2004 92.564 67.1767C92.8094 67.1114 93.0519 67.0431 93.2943 66.963C93.7866 66.8029 94.2693 66.6146 94.7401 66.3991C94.8879 66.3338 95.0328 66.2656 95.1747 66.1943L95.2279 66.1676L95.5679 65.9896L95.5857 65.9747Z" fill="#FF1478"/>
<path d="M102.613 89.0192C102.617 91.3593 102.031 93.6624 100.91 95.7144C100.676 96.146 100.417 96.5641 100.136 96.9667C99.8562 97.3797 99.5531 97.776 99.228 98.1538C99.2097 98.1787 99.1889 98.2015 99.1659 98.2221C99.0417 98.3705 98.9087 98.5189 98.7727 98.6554L98.6219 98.8156C98.4681 98.9729 98.3114 99.1124 98.1488 99.2726C98.1306 99.2929 98.1108 99.3118 98.0897 99.329C98.0158 99.3973 97.9389 99.4685 97.8591 99.5338C97.4446 99.8995 97.0081 100.239 96.5523 100.552C96.3187 100.712 96.0822 100.866 95.8397 101.012L95.6505 101.125L95.2928 101.323L95.0503 101.451L94.9527 101.501L94.8995 101.528C94.8049 101.576 94.7064 101.62 94.6039 101.662C94.5536 101.688 94.5033 101.709 94.4531 101.733L94.1574 101.858C93.8972 101.97 93.6311 102.077 93.3621 102.172L93.0014 102.294H92.96C92.9313 102.305 92.9016 102.314 92.8713 102.32L92.8033 102.344L92.6023 102.404L92.5343 102.424L92.4485 102.448L92.3243 102.481C92.2966 102.491 92.2679 102.499 92.2386 102.504L92.0287 102.561C91.8749 102.599 91.7182 102.635 91.5615 102.665C91.0395 102.776 90.5113 102.855 89.9798 102.902C89.5777 102.938 89.1756 102.959 88.7646 102.962H88.67C88.2797 102.962 87.8983 102.944 87.5169 102.911L87.1799 102.878H87.0912H87.0379L86.5678 102.816L86.1924 102.751L86.0977 102.733C85.9233 102.7 85.7489 102.665 85.5774 102.62C85.5638 102.623 85.5496 102.623 85.536 102.62C85.329 102.576 85.125 102.522 84.924 102.466L84.6549 102.386L84.4184 102.312L84.3415 102.285C83.8629 102.125 83.3931 101.94 82.9342 101.73C82.6168 101.584 82.3064 101.426 82.0029 101.258L81.8669 101.181L81.6658 101.065L81.5564 101C81.2608 100.816 80.9651 100.62 80.6694 100.406L80.634 100.383L80.6103 100.365L80.356 100.178L80.1639 100.029C79.7882 99.7358 79.429 99.4218 79.0877 99.0886C78.7683 98.78 78.4648 98.4565 78.177 98.1182C76.7171 96.4125 75.6896 94.3777 75.1823 92.1873C74.6749 89.997 74.7027 87.7159 75.2633 85.5387C75.8239 83.3614 76.9006 81.3525 78.4017 79.6831C79.9028 78.0137 81.7837 76.7334 83.8842 75.9513C85.9847 75.1691 88.2425 74.9084 90.4651 75.1912C92.6876 75.4741 94.8091 76.2921 96.6487 77.5757C98.4883 78.8592 99.9914 80.5702 101.03 82.5628C102.069 84.5553 102.612 86.7704 102.613 89.0192Z" fill="#434175"/>
<path d="M94.4825 101.427C94.4611 101.396 94.4363 101.367 94.4086 101.341C94.388 101.321 94.3652 101.303 94.3406 101.288C94.242 101.213 94.1654 101.113 94.1191 100.998C94.0727 100.883 94.0583 100.757 94.0774 100.635C94.079 100.609 94.079 100.583 94.0774 100.558C93.9975 100.254 93.8824 99.9597 93.7345 99.6823C93.6605 99.525 93.5689 99.2846 93.4891 99.0591C93.3826 98.7623 93.2969 98.4923 93.2969 98.4923C93.2969 98.4923 93.2969 98.4656 93.2821 98.4151C93.2466 98.2281 93.1491 97.7029 93.0633 97.2102C93.0633 97.1805 93.0633 97.1538 93.0633 97.1242C92.9539 96.4891 91.9073 94.8064 91.9073 94.8064C91.8988 94.7833 91.8833 94.7636 91.8629 94.75C91.6294 94.6402 90.8311 94.1802 90.8311 94.1802C90.2398 93.4294 89.678 93.2454 89.2907 93.2365H89.2404H89.1458C89.1133 93.2347 89.0807 93.2347 89.0482 93.2365C88.9962 93.2458 88.9448 93.2587 88.8945 93.275L88.8383 93.2929C88.8119 93.3018 88.7862 93.3127 88.7615 93.3255L88.7437 93.4709C88.7123 93.1107 88.7403 92.7477 88.8265 92.3966L88.8561 92.2957C88.9122 92.2957 88.9684 92.2957 89.0276 92.2957C89.4731 92.2893 89.9111 92.1799 90.3077 91.9761C90.7044 91.7723 91.0488 91.4795 91.3145 91.1204C91.5801 90.7613 91.7598 90.3457 91.8395 89.9056C91.9193 89.4656 91.8969 89.0131 91.7742 88.5831C91.7742 88.5683 91.7742 88.5564 91.7742 88.5416L91.86 88.5C92.2089 88.3665 92.6583 88.595 92.945 88.3516C93.0487 88.246 93.1231 88.1151 93.1609 87.9718C93.2406 87.7771 93.2934 87.5724 93.3176 87.3634C93.3235 87.3002 93.3235 87.2366 93.3176 87.1735V87.1349C93.3176 87.1349 93.3176 87.1349 93.3176 87.1497C93.3052 87.012 93.2527 86.8809 93.1668 86.7728C92.9805 86.5502 92.6671 86.4938 92.4276 86.3306C92.2348 86.1751 92.075 85.9823 91.9575 85.7638C91.8411 85.5454 91.6857 85.3503 91.4993 85.1881C91.4062 85.1079 91.2931 85.055 91.1721 85.0351C91.0511 85.0152 90.927 85.0291 90.8133 85.0753C90.7437 85.1236 90.6668 85.1607 90.5857 85.1851C90.4982 85.1857 90.4123 85.1621 90.3373 85.1168C89.5243 84.7281 88.5782 84.7963 87.6764 84.9121C87.3174 84.9424 86.9654 85.0285 86.6327 85.1673C86.466 85.24 86.3169 85.3478 86.1955 85.4835C86.0741 85.6192 85.9832 85.7796 85.929 85.9537C85.8551 86.2327 85.9113 86.5473 85.8226 86.8114C85.7635 86.9984 85.6422 87.1616 85.5742 87.3426C85.5385 87.443 85.5166 87.5479 85.5092 87.6542C85.5092 87.6542 85.5092 87.6542 85.5092 87.6364C85.5092 87.6186 85.5092 87.678 85.5092 87.6987V87.8442C85.5546 88.2092 85.6227 88.5709 85.7132 88.9274C85.8196 89.5061 85.7664 90.1323 86.0089 90.6783C86.0338 90.7447 86.0655 90.8084 86.1035 90.8682C86.0177 91.0552 85.929 91.2422 85.8374 91.4202C85.7926 91.4078 85.7472 91.3979 85.7014 91.3906H85.6511H85.5949C85.5596 91.3862 85.5238 91.3862 85.4885 91.3906C85.4626 91.3984 85.4378 91.4093 85.4146 91.4232L85.385 91.4499L85.3643 91.4647C85.3541 91.476 85.3461 91.4891 85.3407 91.5033C85.3391 91.5102 85.3391 91.5173 85.3407 91.5241C85.3249 91.5599 85.3149 91.5979 85.3111 91.6369C85.3111 91.6369 85.3111 91.6577 85.3111 91.6666C85.3111 91.7289 85.3111 91.7912 85.2934 91.8565C85.2756 91.9218 85.2934 91.9307 85.2786 91.9663C85.2753 91.9972 85.2704 92.0279 85.2638 92.0583V92.082C85.2638 92.1176 85.249 92.1562 85.2401 92.1918L85.1958 92.3254L85.1781 92.364C85.1603 92.4025 85.1426 92.4411 85.1219 92.4767L85.0214 92.5806C85.001 92.5911 84.9843 92.6074 84.9732 92.6275C84.9622 92.6476 84.9573 92.6705 84.9593 92.6934L84.9149 92.729C84.8927 92.7322 84.8715 92.7403 84.8528 92.7527C84.8321 92.7052 84.7493 92.7053 84.4921 93.0198C84.1473 93.3856 83.7484 93.6959 83.3095 93.9398C83.3095 93.9398 81.574 95.1803 81.4793 95.7531C81.3847 96.3258 80.8259 98.8009 81.1216 99.6289C81.16 99.7357 81.2339 99.9019 81.3315 100.104V100.122C81.3315 100.122 81.4173 100.451 81.5533 100.938C81.5887 100.958 81.6242 100.985 81.6627 101.006L81.8637 101.122L81.9997 101.202C82.2954 101.371 82.6147 101.531 82.931 101.68C83.3899 101.892 83.8597 102.079 84.3384 102.24L84.4153 102.267L84.6518 102.344L84.9208 102.424C85.1219 102.481 85.3259 102.534 85.5329 102.582C85.5465 102.585 85.5606 102.585 85.5742 102.582C85.7457 102.626 85.9202 102.662 86.0946 102.695L86.1892 102.712L86.5647 102.781L87.0348 102.843H87.088H87.1767L87.5138 102.876C87.8952 102.908 88.2766 102.926 88.6668 102.926H88.7615C89.1724 102.926 89.5745 102.902 89.9766 102.867C90.5082 102.818 91.0364 102.738 91.5584 102.626C91.7151 102.597 91.8718 102.561 92.0255 102.519L92.2355 102.463C92.2647 102.458 92.2935 102.45 92.3212 102.439L92.4454 102.407L92.5311 102.383L92.5991 102.362L92.8002 102.303L92.8682 102.276C92.8985 102.27 92.9282 102.261 92.9569 102.249H92.9983L93.359 102.128C93.628 102.03 93.8941 101.923 94.1543 101.807L94.45 101.683C94.5002 101.659 94.5505 101.638 94.6007 101.608C94.5688 101.543 94.5291 101.483 94.4825 101.427ZM88.7496 93.5659H88.7319V93.5481L88.7496 93.5659Z" fill="url(#paint1_linear)"/>
<path opacity="0.3" d="M94.4823 101.445C94.4601 101.415 94.4354 101.388 94.4084 101.362C94.3878 101.342 94.365 101.324 94.3404 101.309C94.2421 101.236 94.1655 101.137 94.1191 101.024C94.0727 100.91 94.0582 100.786 94.0773 100.665C94.0789 100.639 94.0789 100.613 94.0773 100.587C93.9972 100.287 93.8821 99.9971 93.7343 99.7238C93.6604 99.5695 93.5688 99.3321 93.4889 99.1095C93.3825 98.8127 93.2967 98.5486 93.2967 98.5486L93.282 98.4744C93.2465 98.2875 93.1489 97.7711 93.0632 97.2873C93.0632 97.2577 93.0632 97.231 93.0632 97.2013C92.9538 96.5751 91.9071 94.9132 91.9071 94.9132C91.8989 94.8908 91.8833 94.8719 91.8628 94.8598C91.6292 94.7499 90.8309 94.2959 90.8309 94.2959C90.2396 93.554 89.6779 93.3729 89.2906 93.364H89.2403H89.1457C89.1132 93.3623 89.0806 93.3623 89.0481 93.364C88.996 93.3734 88.9447 93.3862 88.8944 93.4026L88.8382 93.4204C88.8118 93.4293 88.7861 93.4403 88.7613 93.4531L88.7436 93.5985C88.7121 93.2422 88.7401 92.8831 88.8264 92.536C88.8264 92.5034 88.8471 92.4707 88.8559 92.4381C88.9121 92.4381 88.9683 92.4381 89.0274 92.4381C89.7857 92.4381 90.5129 92.1358 91.0491 91.5976C91.5852 91.0594 91.8864 90.3294 91.8864 89.5683C91.887 89.2992 91.8492 89.0314 91.7741 88.773V88.7344L91.8214 88.7225C92.1703 88.592 92.6197 88.8175 92.9065 88.5771C93.0101 88.4727 93.0846 88.3427 93.1223 88.2002C93.2018 88.0107 93.2546 87.8109 93.279 87.6067C93.2849 87.5445 93.2849 87.4819 93.279 87.4197V87.3811C93.279 87.3811 93.279 87.3811 93.279 87.396C93.266 87.2602 93.2135 87.1312 93.1282 87.025C92.942 86.8024 92.6286 86.749 92.3891 86.5858C92.1956 86.4344 92.0356 86.2445 91.919 86.0279C91.8034 85.8123 91.6502 85.6193 91.4666 85.4581C91.3731 85.3786 91.2597 85.3266 91.1386 85.3077C91.0176 85.2889 90.8937 85.3039 90.7807 85.3512C90.7102 85.3975 90.6336 85.4335 90.553 85.4581C90.4656 85.4586 90.3796 85.435 90.3047 85.3898C89.4916 85.004 88.5455 85.0723 87.6437 85.188C87.2847 85.2159 86.9324 85.3011 86.6 85.4402C86.4342 85.511 86.2855 85.6168 86.164 85.7505C86.0426 85.8841 85.9513 86.0425 85.8964 86.2148C85.8225 86.4908 85.8786 86.7906 85.7899 87.0636C85.7308 87.2476 85.6096 87.4078 85.5416 87.5889C85.5061 87.6842 85.4842 87.7841 85.4765 87.8856C85.4765 87.8856 85.4765 87.8856 85.4765 87.8678C85.4765 87.85 85.4765 87.9094 85.4765 87.9302V88.0726C85.5219 88.4327 85.5901 88.7896 85.6805 89.141C85.787 89.7108 85.7338 90.3281 85.9762 90.8712C86.0018 90.9363 86.0334 90.9989 86.0708 91.0581C85.9851 91.2421 85.8964 91.4261 85.8047 91.6012C85.76 91.5888 85.7146 91.5789 85.6687 91.5715H85.6185H85.5623C85.5269 91.5672 85.4912 91.5672 85.4558 91.5715C85.4312 91.5789 85.4074 91.5888 85.3849 91.6012L85.3553 91.6279L85.3346 91.6428C85.3244 91.654 85.3164 91.6671 85.311 91.6813C85.3094 91.6882 85.3094 91.6953 85.311 91.7021C85.2948 91.7377 85.2848 91.7759 85.2814 91.8149C85.2814 91.8149 85.2814 91.8357 85.2814 91.8446C85.2814 91.9069 85.2814 91.9692 85.2637 92.0315C85.2459 92.0938 85.2637 92.1057 85.2489 92.1413C85.2341 92.1769 85.2489 92.2007 85.2341 92.2304C85.2193 92.26 85.2341 92.2452 85.2341 92.2541C85.2341 92.263 85.2193 92.3283 85.2104 92.3639L85.1661 92.4975L85.1484 92.5331C85.132 92.5709 85.1133 92.6075 85.0922 92.6429C85.0749 92.6577 85.0561 92.6707 85.036 92.6815C85.0157 92.692 84.9989 92.7083 84.9879 92.7284C84.9768 92.7484 84.972 92.7714 84.9739 92.7942L84.9296 92.8298C84.9075 92.8316 84.8862 92.8387 84.8675 92.8506C84.8468 92.8061 84.764 92.8061 84.5068 93.1147C84.1612 93.4765 83.7624 93.7828 83.3241 94.0229C83.3241 94.0229 81.5886 95.2485 81.494 95.8035C81.3994 96.3584 80.8406 98.8127 81.1362 99.6289C81.1747 99.7357 81.2486 99.8989 81.3462 100.098V100.116C81.3462 100.116 81.4319 100.442 81.5679 100.923L81.6773 100.988L81.8784 101.104L82.0144 101.181C82.3179 101.351 82.6284 101.508 82.9457 101.653C83.4046 101.863 83.8744 102.048 84.353 102.208L84.4299 102.235L84.6664 102.309L84.9355 102.389C85.1365 102.445 85.3405 102.499 85.5475 102.543C85.5611 102.546 85.5753 102.546 85.5889 102.543C85.7604 102.588 85.9348 102.623 86.1092 102.656L86.2039 102.674L86.5793 102.739L87.0494 102.801H87.1027H87.1914L87.5284 102.834C87.9098 102.867 88.2912 102.884 88.6815 102.884H88.7761C89.1871 102.884 89.5892 102.861 89.9913 102.825C90.5228 102.778 91.051 102.699 91.573 102.588C91.7297 102.558 91.8864 102.522 92.0402 102.484L92.2501 102.427C92.2794 102.422 92.3081 102.414 92.3358 102.404L92.46 102.371L92.5458 102.347L92.6138 102.327L92.8148 102.267L92.8828 102.243C92.9131 102.237 92.9428 102.228 92.9715 102.217H93.0129L93.3736 102.095C93.6427 102 93.9088 101.893 94.1689 101.78L94.4646 101.656C94.5149 101.632 94.5651 101.611 94.6154 101.585C94.5762 101.533 94.5316 101.487 94.4823 101.445ZM88.7495 93.6875H88.7317V93.6697L88.7495 93.6875Z" fill="#FF1478"/>
<path d="M102.909 124.038C102.912 126.378 102.327 128.681 101.206 130.733C100.971 131.165 100.712 131.583 100.431 131.985C100.152 132.398 99.8485 132.795 99.5234 133.172C99.5051 133.197 99.4843 133.22 99.4613 133.241C99.3371 133.389 99.2041 133.537 99.0681 133.674L98.9173 133.834C98.7635 133.991 98.6068 134.131 98.4442 134.291C98.426 134.311 98.4062 134.33 98.3851 134.348C98.3112 134.416 98.2343 134.487 98.1545 134.552C97.7399 134.918 97.3035 135.258 96.8476 135.57C96.6141 135.731 96.3775 135.885 96.1351 136.03L95.9459 136.143L95.5881 136.342L95.4137 136.434H95.393L95.3457 136.461L95.2481 136.511L95.1949 136.538L94.8992 136.671L94.7484 136.743L94.4528 136.867L94.033 137.042L93.8112 137.125L93.6604 137.182L93.2997 137.303H93.2583L93.1696 137.33L93.1016 137.354L92.9006 137.413L92.8326 137.434H92.806H92.7823H92.7468L92.6227 137.467C92.5949 137.477 92.5662 137.485 92.5369 137.49L92.327 137.547C92.1732 137.585 92.0166 137.621 91.8598 137.651C91.6056 137.704 91.3484 137.752 91.0911 137.79C90.8339 137.829 90.5501 137.864 90.2781 137.888C89.876 137.924 89.4739 137.944 89.0629 137.947H88.9683C88.578 137.947 88.1966 137.93 87.8152 137.897L87.4782 137.864H87.3895H87.3362C87.1943 137.864 87.0406 137.829 86.9105 137.808H86.8661L86.4907 137.743L86.396 137.725C86.2216 137.692 86.0472 137.657 85.8757 137.612C85.8621 137.615 85.8479 137.615 85.8343 137.612C85.6273 137.568 85.4233 137.514 85.2223 137.458L84.9532 137.378L84.7167 137.303L84.6398 137.277L84.424 137.203L84.2732 137.149C84.1638 137.111 84.0574 137.069 83.9509 137.024L83.8415 136.98L83.7026 136.924C83.5488 136.86 83.3981 136.795 83.2502 136.728C82.9329 136.583 82.6224 136.426 82.3189 136.256L82.1829 136.179L81.9818 136.063L81.8724 135.998C81.7246 135.906 81.5768 135.814 81.4319 135.701C81.2841 135.603 81.1362 135.505 81.0002 135.404L80.9648 135.38L80.9411 135.363L80.6868 135.176L80.4947 135.027C80.1191 134.734 79.7598 134.42 79.4185 134.086C79.0991 133.778 78.7956 133.454 78.5078 133.116C77.038 131.412 76.0014 129.376 75.4867 127.183C74.972 124.989 74.9946 122.703 75.5524 120.52C76.1103 118.337 77.1868 116.322 78.6899 114.648C80.193 112.973 82.0779 111.69 84.1832 110.907C86.2885 110.123 88.5516 109.864 90.7786 110.15C93.0057 110.437 95.1305 111.26 96.9711 112.551C98.8117 113.842 100.313 115.561 101.347 117.561C102.381 119.562 102.917 121.784 102.909 124.038Z" fill="#434175"/>
<g opacity="0.3">
<path opacity="0.3" d="M92.7939 137.452L92.8017 137.45L92.7939 137.452Z" fill="#FF1478"/>
<path opacity="0.3" d="M81.89 136.986L81.8369 136.962C81.8532 136.973 81.8712 136.981 81.89 136.986Z" fill="#FF1478"/>
</g>
<path d="M102.909 159.354C102.912 161.695 102.326 163.998 101.206 166.05C100.971 166.481 100.712 166.899 100.431 167.302C100.151 167.715 99.8484 168.111 99.5233 168.489C99.5078 168.512 99.4888 168.532 99.4671 168.548C99.343 168.697 99.2099 168.845 99.0739 168.982L99.0325 169.026L98.9231 169.142C98.7694 169.299 98.6127 169.439 98.4501 169.599C98.4318 169.619 98.4121 169.638 98.3909 169.655C98.317 169.724 98.2402 169.795 98.1603 169.86C97.8647 170.133 97.5306 170.391 97.1965 170.635L97.1373 170.676L97.0161 170.762C96.9629 170.804 96.9097 170.84 96.8535 170.878C96.6199 171.038 96.3834 171.193 96.141 171.338L96.0345 171.403L95.9517 171.451L95.594 171.65L95.4196 171.742H95.3989L95.3516 171.768L95.254 171.819L95.2008 171.846L94.9051 171.979L94.7543 172.05L94.4587 172.175L94.0388 172.35L93.8171 172.433L93.6663 172.49L93.6072 172.51L93.3115 172.611H93.2701L93.1814 172.638L93.1134 172.662L93.0336 172.685L92.9124 172.721L92.8444 172.742H92.8177H92.7941H92.7586L92.6344 172.774C92.6067 172.785 92.578 172.793 92.5487 172.798L92.3388 172.855C92.185 172.893 92.0283 172.929 91.8716 172.958C91.6174 173.012 91.3601 173.059 91.1029 173.098C90.9492 173.122 90.7954 173.142 90.6417 173.16H90.5855L90.2899 173.19C89.8878 173.226 89.4857 173.246 89.0747 173.249H88.7376C88.442 173.249 88.1286 173.228 87.827 173.202H87.7383L87.49 173.178H87.4013H87.348L87.0524 173.142L86.9105 173.122H86.8661L86.4906 173.056L86.396 173.039L86.1477 172.991L86.0442 172.967L85.8757 172.926C85.862 172.929 85.8479 172.929 85.8343 172.926C85.6273 172.881 85.4233 172.828 85.2222 172.771L85.1158 172.739H85.0774L84.9532 172.703L84.8379 172.668L84.7167 172.629L84.6398 172.602L84.424 172.528L84.2732 172.475L84.1342 172.412L83.9539 172.341L83.8445 172.297L83.7055 172.24C83.5518 172.177 83.401 172.112 83.2531 172.044C83.0196 171.938 82.789 171.825 82.5643 171.7C82.4815 171.662 82.4016 171.617 82.3218 171.573L82.2597 171.537L82.1888 171.498L81.9877 171.383L81.8783 171.317C81.7305 171.225 81.5827 171.133 81.4378 171.021C81.29 170.923 81.1421 170.825 81.0061 170.724L80.9706 170.7L80.947 170.682L80.8258 170.593L80.6927 170.495L80.6691 170.477C80.6129 170.433 80.5538 170.391 80.5006 170.347C80.1249 170.053 79.7657 169.739 79.4244 169.406C79.105 169.097 78.8015 168.774 78.5137 168.436C77.0425 166.732 76.0044 164.697 75.4884 162.503C74.9724 160.309 74.9939 158.022 75.551 155.838C76.1081 153.654 77.1842 151.639 78.6871 149.964C80.1901 148.289 82.0751 147.004 84.1808 146.22C86.2864 145.436 88.55 145.177 90.7776 145.463C93.0053 145.749 95.1306 146.573 96.9716 147.864C98.8125 149.155 100.314 150.875 101.348 152.876C102.382 154.877 102.918 157.1 102.909 159.354Z" fill="#434175"/>
<path opacity="0.3" d="M97.9681 165.586C97.913 165.478 97.8174 165.395 97.7021 165.358C97.5869 165.32 97.4613 165.329 97.3531 165.384L93.3055 167.462C93.2979 167.407 93.2809 167.353 93.2553 167.304C93.2532 167.245 93.2372 167.187 93.2084 167.136C93.1795 167.084 93.1389 167.04 93.0897 167.008C93.054 166.986 93.0237 166.957 93.001 166.922C92.9993 166.891 92.9993 166.86 93.001 166.83C93.0081 166.793 93.0076 166.755 92.9995 166.719C92.9914 166.683 92.9757 166.649 92.9537 166.619C92.9465 166.543 92.9229 166.47 92.8846 166.404C92.8463 166.339 92.7942 166.282 92.7319 166.239H92.7171C92.7171 166.209 92.7171 166.177 92.7171 166.135C92.7136 166.069 92.6943 166.005 92.661 165.948C92.6462 165.755 92.5072 165.577 92.2293 165.313C92.1255 165.2 92.0496 165.063 92.0076 164.915C92.0076 164.915 92.0076 164.915 92.0076 164.898C91.9573 164.705 91.907 164.488 91.8361 164.268C91.8034 164.144 91.7639 164.021 91.7178 163.9C91.499 163.334 91.2595 163.408 91.162 163.307C91.0644 163.206 90.4287 163.078 90.1035 162.909C89.8286 162.767 88.9209 162.909 88.643 162.974C88.643 162.957 88.643 162.936 88.643 162.918C89.3005 162.72 89.86 162.281 90.2105 161.689C90.5609 161.096 90.6768 160.393 90.5352 159.719L90.5174 159.651C90.6614 159.651 90.8041 159.622 90.9373 159.567C91.044 159.477 91.1127 159.35 91.1295 159.211C91.2068 158.954 91.225 158.682 91.1827 158.416C91.1827 158.389 91.159 158.363 91.1502 158.336C91.145 158.313 91.1381 158.29 91.1295 158.268C91.1323 158.244 91.1323 158.22 91.1295 158.196C91.1082 158.112 91.0775 158.03 91.0378 157.953C91.0396 157.96 91.0396 157.967 91.0378 157.974C90.8318 157.653 90.6046 157.347 90.3578 157.057C90.1213 156.701 89.9852 156.25 89.6275 156.012C89.4402 155.915 89.2343 155.859 89.0237 155.848C88.8131 155.838 88.6026 155.872 88.4064 155.95C88.2198 156.016 88.0279 156.065 87.8329 156.098C87.5056 156.105 87.1783 156.085 86.8542 156.039C86.3944 156.009 85.9375 156.131 85.5533 156.386C85.4683 156.442 85.3958 156.514 85.3404 156.6C85.2862 156.722 85.2541 156.852 85.2458 156.986C85.2089 157.235 85.1224 157.474 84.9916 157.689C84.891 157.861 84.7639 158.012 84.6722 158.187C84.5701 158.36 84.5393 158.565 84.5865 158.76C84.619 158.861 84.6782 158.95 84.7018 159.057C84.7103 159.299 84.6374 159.538 84.4948 159.734C84.3927 159.932 84.3437 160.154 84.3529 160.378C84.364 160.548 84.427 160.711 84.5333 160.844C84.5488 160.886 84.5686 160.927 84.5924 160.965L84.6072 160.986C84.6252 161.015 84.645 161.043 84.6663 161.069L84.6959 161.099L84.755 161.158C84.9238 161.277 85.1253 161.34 85.3316 161.339C85.3465 161.372 85.3633 161.403 85.3818 161.434V161.488C85.3804 161.504 85.3804 161.521 85.3818 161.538C85.3641 161.538 84.7728 161.618 84.5835 161.867C84.3903 162.043 84.1432 162.148 83.8828 162.164C83.8828 162.164 83.3063 162.357 83.3181 162.408C83.3299 162.458 83.1496 162.526 82.7859 162.624C82.4223 162.722 81.825 163.069 81.825 163.155C81.825 163.242 80.873 164.179 80.873 164.277C80.7021 164.617 80.6149 164.992 80.6187 165.372C80.6542 166.013 80.6927 166.821 80.5478 166.954C80.4029 167.088 80.5478 167.604 80.5478 167.604C80.584 167.662 80.6032 167.729 80.6032 167.797C80.6032 167.865 80.584 167.932 80.5478 167.99C80.4266 168.209 80.5714 169.112 80.5714 169.112V170.052C80.6021 170.187 80.6199 170.324 80.6247 170.462L80.6483 170.48L80.7814 170.578L80.9026 170.667L80.9262 170.685L80.9617 170.708C81.1036 170.809 81.2574 170.907 81.3934 171.005C81.5383 171.103 81.689 171.195 81.8339 171.302L81.9433 171.367L82.1443 171.483L82.2153 171.521L82.2774 171.557C82.3572 171.602 82.4371 171.646 82.5198 171.685C82.7445 171.809 82.9752 171.922 83.2087 172.029C83.3566 172.098 83.5073 172.163 83.6611 172.225L83.8 172.281L83.9094 172.326L84.0898 172.397L84.2317 172.45L84.3825 172.504L84.5983 172.578L84.6752 172.605L84.7964 172.643L84.9117 172.679L85.0359 172.715H85.0743L85.1808 172.747C85.3818 172.804 85.5858 172.857 85.7928 172.901C85.8064 172.905 85.8206 172.905 85.8342 172.901L86.0027 172.943L86.1062 172.967L86.3546 173.014L86.4492 173.032L86.8246 173.097H86.869L87.0109 173.118L87.3066 173.154H87.3598H87.4485L87.6968 173.177H87.7855C88.0812 173.204 88.3769 173.219 88.6962 173.225H89.0332C89.4442 173.225 89.8463 173.201 90.2484 173.166L90.544 173.136H90.6002C90.754 173.118 90.9077 173.097 91.0615 173.074C91.3187 173.035 91.5759 172.988 91.8302 172.934C91.9869 172.904 92.1436 172.869 92.2973 172.83L92.5072 172.774C92.5365 172.769 92.5652 172.761 92.593 172.75L92.7171 172.717H92.7526H92.7763H92.8029L92.8709 172.697L92.9921 172.661L93.0719 172.637L93.1399 172.614L93.2286 172.587H93.27L93.5657 172.486L93.6248 172.465L93.7756 172.409L93.9974 172.326L94.4172 172.151L94.7129 172.026L94.8636 171.955L95.1593 171.821L95.2125 171.795L95.3101 171.744L95.3574 171.717H95.3781L95.5525 171.625L95.9103 171.427L95.9931 171.379L96.0995 171.314C96.3419 171.168 96.5785 171.017 96.812 170.854C96.8682 170.815 96.9214 170.78 96.9746 170.738H97.0338L97.0959 170.646L97.155 170.604C97.4891 170.361 97.8114 170.103 98.1189 169.83C98.1987 169.765 98.2756 169.693 98.3495 169.625C98.3706 169.608 98.3904 169.589 98.4086 169.569C98.5712 169.42 98.7279 169.272 98.8817 169.112L98.9911 168.996L99.0324 168.951C99.1685 168.812 99.3015 168.655 99.4257 168.518L97.9681 165.586ZM91.23 170.239L91.1561 170.257C91.1582 170.235 91.1663 170.213 91.1797 170.195C91.1797 170.195 90.7274 170.213 90.2691 170.248C90.264 170.171 90.272 170.094 90.2927 170.02C90.3988 169.694 90.4741 169.359 90.5174 169.02L91.3039 170.225L91.23 170.239ZM91.3808 172.531C91.383 172.491 91.383 172.451 91.3808 172.412C91.4074 172.394 91.4251 172.379 91.4281 172.367C91.422 172.235 91.4071 172.103 91.3837 171.973H91.4547L92.2855 171.842C92.2855 171.842 92.3949 171.842 92.5811 171.8L92.6491 171.934C92.2743 172.044 91.9162 172.204 91.5848 172.412C91.5641 172.45 91.4902 172.492 91.3867 172.531H91.3808Z" fill="#FF1478"/>
<path d="M244.645 49.5073L243.463 48.3203C243.405 48.2614 243.336 48.2147 243.26 48.1828C243.183 48.1509 243.102 48.1345 243.019 48.1345C242.937 48.1345 242.855 48.1509 242.779 48.1828C242.703 48.2147 242.634 48.2614 242.576 48.3203L235.226 55.6386L232.115 52.4929C232.058 52.4333 231.989 52.3859 231.913 52.3535C231.836 52.3212 231.755 52.3045 231.672 52.3045C231.589 52.3045 231.507 52.3212 231.431 52.3535C231.355 52.3859 231.286 52.4333 231.228 52.4929L230.046 53.6799C229.987 53.7384 229.941 53.8078 229.91 53.8841C229.878 53.9605 229.862 54.0424 229.862 54.1251C229.862 54.2078 229.878 54.2897 229.91 54.366C229.941 54.4424 229.987 54.5118 230.046 54.5703L234.776 59.3453C234.834 59.4038 234.904 59.4502 234.98 59.4819C235.056 59.5136 235.137 59.5299 235.22 59.5299C235.302 59.5299 235.384 59.5136 235.46 59.4819C235.536 59.4502 235.605 59.4038 235.663 59.3453L244.634 50.4095C244.695 50.3519 244.744 50.2825 244.778 50.2054C244.812 50.1283 244.83 50.0452 244.831 49.961C244.832 49.8767 244.816 49.7931 244.784 49.7152C244.752 49.6373 244.705 49.5665 244.645 49.5073Z" fill="#3ACC6C"/>
<path d="M244.646 84.2716L243.463 83.0845C243.405 83.0256 243.336 82.9789 243.26 82.947C243.184 82.9151 243.102 82.8987 243.02 82.8987C242.937 82.8987 242.855 82.9151 242.779 82.947C242.703 82.9789 242.634 83.0256 242.576 83.0845L235.241 90.4147L232.13 87.269C232.073 87.2094 232.004 87.162 231.928 87.1296C231.852 87.0973 231.77 87.0806 231.687 87.0806C231.604 87.0806 231.522 87.0973 231.446 87.1296C231.37 87.162 231.301 87.2094 231.243 87.269L230.061 88.456C230.003 88.5145 229.956 88.5839 229.925 88.6602C229.893 88.7366 229.877 88.8185 229.877 88.9012C229.877 88.9839 229.893 89.0658 229.925 89.1421C229.956 89.2185 230.003 89.2879 230.061 89.3464L234.791 94.1214C234.85 94.1799 234.919 94.2263 234.995 94.258C235.071 94.2897 235.153 94.306 235.235 94.306C235.317 94.306 235.399 94.2897 235.475 94.258C235.551 94.2263 235.62 94.1799 235.678 94.1214L244.64 85.1619C244.699 85.104 244.746 85.035 244.778 84.9588C244.81 84.8826 244.827 84.8008 244.828 84.718C244.828 84.6352 244.813 84.5531 244.781 84.4764C244.75 84.3998 244.704 84.3302 244.646 84.2716Z" fill="#3ACC6C"/>
<path d="M244.646 154.428L243.463 153.241C243.405 153.182 243.336 153.136 243.26 153.104C243.184 153.072 243.102 153.056 243.02 153.056C242.938 153.056 242.856 153.072 242.78 153.104C242.704 153.136 242.635 153.182 242.576 153.241L235.226 160.559L232.116 157.413C232.058 157.354 231.989 157.308 231.913 157.276C231.837 157.244 231.755 157.227 231.673 157.227C231.59 157.227 231.508 157.244 231.432 157.276C231.356 157.308 231.287 157.354 231.229 157.413L230.046 158.6C229.988 158.659 229.941 158.728 229.909 158.804C229.878 158.881 229.861 158.963 229.861 159.045C229.861 159.128 229.878 159.21 229.909 159.287C229.941 159.363 229.988 159.432 230.046 159.491L234.777 164.266C234.895 164.383 235.054 164.449 235.22 164.449C235.387 164.449 235.546 164.383 235.664 164.266L244.634 155.327C244.696 155.27 244.745 155.201 244.779 155.124C244.813 155.047 244.831 154.964 244.832 154.88C244.834 154.796 244.818 154.712 244.786 154.635C244.754 154.557 244.706 154.486 244.646 154.428Z" fill="#3ACC6C"/>
<path d="M38.1911 31.348C39.9474 30.0109 39.2049 26.0601 36.5327 22.5238C33.8605 18.9875 30.2704 17.2047 28.5141 18.5419C26.7578 19.8791 27.5002 23.8298 30.1725 27.3661C32.8447 30.9024 36.4347 32.6852 38.1911 31.348Z" fill="#FF1478"/>
<path opacity="0.1" d="M38.1911 31.348C39.9474 30.0109 39.2049 26.0601 36.5327 22.5238C33.8605 18.9875 30.2704 17.2047 28.5141 18.5419C26.7578 19.8791 27.5002 23.8298 30.1725 27.3661C32.8447 30.9024 36.4347 32.6852 38.1911 31.348Z" fill="black"/>
<path d="M38.045 31.1967C39.6595 29.9675 38.8581 26.1784 36.255 22.7335C33.6518 19.2886 30.2327 17.4924 28.6182 18.7216C27.0037 19.9508 27.8051 23.7399 30.4082 27.1848C33.0114 30.6297 36.4305 32.4259 38.045 31.1967Z" fill="#FF1478"/>
<path opacity="0.3" d="M28.5859 18.8175C30.0897 21.8317 32.0065 24.6197 34.2804 27.1004C34.712 27.5663 35.1673 28.0233 35.5931 28.4804L38.0619 31.0326" fill="#407D3B"/>
<path d="M27.5441 17.9935C29.3004 16.6564 28.558 12.7056 25.8857 9.16932C23.2135 5.63301 19.6235 3.85025 17.8671 5.18742C16.1108 6.52459 16.8533 10.4753 19.5255 14.0116C22.1977 17.5479 25.7878 19.3307 27.5441 17.9935Z" fill="#FF1478"/>
<path opacity="0.1" d="M27.5441 17.9935C29.3004 16.6564 28.558 12.7056 25.8857 9.16932C23.2135 5.63301 19.6235 3.85025 17.8671 5.18742C16.1108 6.52459 16.8533 10.4753 19.5255 14.0116C22.1977 17.5479 25.7878 19.3307 27.5441 17.9935Z" fill="black"/>
<path d="M27.4019 17.8422C29.0165 16.613 28.215 12.8239 25.6119 9.37897C23.0087 5.93407 19.5896 4.1379 17.9751 5.3671C16.3606 6.59631 17.162 10.3854 19.7652 13.8303C22.3683 17.2752 25.7874 19.0714 27.4019 17.8422Z" fill="#FF1478"/>
<path opacity="0.3" d="M17.9419 5.46301C19.4457 8.47716 21.3624 11.2652 23.6363 13.7459C24.068 14.2118 24.5233 14.6688 24.949 15.1259L27.4178 17.6781" fill="#407D3B"/>
<path d="M35.367 16.7125C38.3745 14.422 39.89 11.3447 38.7519 9.83922C37.6139 8.33375 34.2533 8.97018 31.2458 11.2607C28.2383 13.5513 26.7228 16.6286 27.8609 18.134C28.9989 19.6395 32.3595 19.0031 35.367 16.7125Z" fill="#FF1478"/>
<path opacity="0.1" d="M35.367 16.7125C38.3745 14.422 39.89 11.3447 38.7519 9.83922C37.6139 8.33375 34.2533 8.97018 31.2458 11.2607C28.2383 13.5513 26.7228 16.6286 27.8609 18.134C28.9989 19.6395 32.3595 19.0031 35.367 16.7125Z" fill="black"/>
<path d="M35.1886 16.4763C38.1193 14.2442 39.647 11.3127 38.6008 9.92869C37.5545 8.54464 34.3306 9.23212 31.3998 11.4642C28.4691 13.6963 26.9414 16.6278 27.9876 18.0118C29.0339 19.3959 32.2579 18.7084 35.1886 16.4763Z" fill="#FF1478"/>
<path opacity="0.3" d="M38.5175 9.8949C35.9537 11.1844 33.5822 12.8277 31.4719 14.7768C31.0728 15.1477 30.6825 15.5246 30.2893 15.9045L28.1191 18.0205" fill="#407D3B"/>
<path d="M24.2229 24.8728C27.4956 22.9838 29.3879 20.1244 28.4494 18.4861C27.5109 16.8479 24.097 17.0511 20.8243 18.9401C17.5515 20.8291 15.6593 23.6885 16.5978 25.3267C17.5363 26.965 20.9502 26.7617 24.2229 24.8728Z" fill="#FF1478"/>
<path opacity="0.1" d="M24.2229 24.8728C27.4956 22.9838 29.3879 20.1244 28.4494 18.4861C27.5109 16.8479 24.097 17.0511 20.8243 18.9401C17.5515 20.8291 15.6593 23.6885 16.5978 25.3267C17.5363 26.965 20.9502 26.7617 24.2229 24.8728Z" fill="black"/>
<path d="M24.0749 24.6165C27.2641 22.7758 29.15 20.0626 28.2872 18.5565C27.4244 17.0503 24.1396 17.3216 20.9504 19.1624C17.7612 21.0032 15.8752 23.7164 16.738 25.2225C17.6009 26.7286 20.8857 26.4573 24.0749 24.6165Z" fill="#FF1478"/>
<path opacity="0.3" d="M16.748 25.127C18.929 23.2574 21.3603 21.704 23.971 20.5122C24.4648 20.2896 24.9615 20.076 25.4493 19.8652L28.2374 18.6782" fill="#407D3B"/>
<path d="M27.8593 18.3892C28.5013 17.8909 28.2151 16.4401 27.22 15.1488C26.225 13.8575 24.898 13.2147 24.2561 13.713C23.6141 14.2114 23.9004 15.6622 24.8954 16.9535C25.8904 18.2448 27.2174 18.8876 27.8593 18.3892Z" fill="#FF1478"/>
<path opacity="0.1" d="M27.8593 18.3892C28.5013 17.8909 28.2151 16.4401 27.22 15.1488C26.225 13.8575 24.898 13.2147 24.2561 13.713C23.6141 14.2114 23.9004 15.6622 24.8954 16.9535C25.8904 18.2448 27.2174 18.8876 27.8593 18.3892Z" fill="black"/>
<path d="M27.8182 18.3255C28.4085 17.8672 28.1014 16.4762 27.1324 15.2186C26.1634 13.961 24.8993 13.3131 24.309 13.7713C23.7187 14.2296 24.0258 15.6205 24.9948 16.8781C25.9639 18.1357 27.2279 18.7837 27.8182 18.3255Z" fill="#FF1478"/>
<path opacity="0.3" d="M24.3491 13.7681C25.2701 14.5944 26.0721 15.5453 26.7321 16.5933C26.8563 16.7892 26.9775 16.991 27.0958 17.1869L27.761 18.3116" fill="#407D3B"/>
<path d="M31.5288 23.137C32.1707 22.6387 31.8845 21.1879 30.8895 19.8966C29.8945 18.6053 28.5675 17.9625 27.9255 18.4608C27.2836 18.9592 27.5698 20.41 28.5648 21.7013C29.5598 22.9926 30.8868 23.6354 31.5288 23.137Z" fill="#FF1478"/>
<path opacity="0.1" d="M31.5288 23.137C32.1707 22.6387 31.8845 21.1879 30.8895 19.8966C29.8945 18.6053 28.5675 17.9625 27.9255 18.4608C27.2836 18.9592 27.5698 20.41 28.5648 21.7013C29.5598 22.9926 30.8868 23.6354 31.5288 23.137Z" fill="black"/>
<path d="M31.4906 23.0689C32.0808 22.6107 31.7738 21.2197 30.8048 19.9621C29.8357 18.7045 28.5717 18.0565 27.9814 18.5148C27.3911 18.9731 27.6982 20.364 28.6672 21.6216C29.6362 22.8792 30.9003 23.5272 31.4906 23.0689Z" fill="#FF1478"/>
<path opacity="0.3" d="M28.0176 18.5102C28.9393 19.3357 29.7415 20.2867 30.4006 21.3354C30.5277 21.5343 30.646 21.7331 30.7643 21.929L31.4324 23.0538" fill="#407D3B"/>
<path d="M27.9146 19.0471C28.2445 19.0471 28.5119 18.7787 28.5119 18.4476C28.5119 18.1165 28.2445 17.8481 27.9146 17.8481C27.5848 17.8481 27.3174 18.1165 27.3174 18.4476C27.3174 18.7787 27.5848 19.0471 27.9146 19.0471Z" fill="#FF1478"/>
<path opacity="0.3" d="M27.9146 19.0471C28.2445 19.0471 28.5119 18.7787 28.5119 18.4476C28.5119 18.1165 28.2445 17.8481 27.9146 17.8481C27.5848 17.8481 27.3174 18.1165 27.3174 18.4476C27.3174 18.7787 27.5848 19.0471 27.9146 19.0471Z" fill="#407D3B"/>
<path d="M275.323 196.798C275.243 196.386 273.392 186.598 278.959 173.65C281.138 168.584 280.958 164.219 278.43 160.678C277.273 159.069 275.753 157.757 273.995 156.85L274.651 155.39C276.67 156.412 278.414 157.906 279.737 159.746C281.715 162.515 283.441 167.284 280.435 174.288C275.062 186.794 276.887 196.406 276.887 196.501L275.323 196.798Z" fill="#FF1478"/>
<path d="M283.616 172.656C285.858 172.463 287.72 172.252 287.779 172.952C287.839 173.653 286.073 174.997 283.835 175.19C281.597 175.383 279.731 174.97 279.672 174.27C279.613 173.57 281.378 172.848 283.616 172.656Z" fill="#FF1478"/>
<path opacity="0.1" d="M283.616 172.656C285.858 172.463 287.72 172.252 287.779 172.952C287.839 173.653 286.073 174.997 283.835 175.19C281.597 175.383 279.731 174.97 279.672 174.27C279.613 173.57 281.378 172.848 283.616 172.656Z" fill="black"/>
<path d="M283.626 172.661C285.808 172.474 287.617 172.184 287.667 172.78C287.718 173.377 285.991 174.629 283.809 174.816C281.627 175.003 279.817 174.674 279.767 174.08C279.717 173.486 281.444 172.851 283.626 172.661Z" fill="#FF1478"/>
<path opacity="0.3" d="M279.799 174.104C281.499 174.142 283.198 174.043 284.882 173.807C285.201 173.762 285.517 173.712 285.834 173.661C286.425 173.569 287.016 172.854 287.608 172.771" fill="#407D3B"/>
<path d="M279.69 185.719C281.928 185.529 283.794 185.318 283.853 186.016C283.912 186.713 282.147 188.064 279.906 188.257C277.665 188.449 275.805 188.037 275.743 187.337C275.681 186.636 277.452 185.912 279.69 185.719Z" fill="#FF1478"/>
<path opacity="0.1" d="M279.69 185.719C281.928 185.529 283.794 185.318 283.853 186.016C283.912 186.713 282.147 188.064 279.906 188.257C277.665 188.449 275.805 188.037 275.743 187.337C275.681 186.636 277.452 185.912 279.69 185.719Z" fill="black"/>
<path d="M279.699 185.728C281.881 185.541 283.691 185.25 283.741 185.844C283.791 186.437 282.064 187.695 279.897 187.882C277.73 188.069 275.906 187.74 275.856 187.146C275.805 186.553 277.517 185.915 279.699 185.728Z" fill="#FF1478"/>
<path opacity="0.3" d="M275.874 187.171C277.573 187.208 279.272 187.109 280.956 186.874C281.275 186.83 281.592 186.779 281.908 186.729C282.499 186.637 283.091 185.922 283.682 185.838" fill="#407D3B"/>
<path d="M276.332 171.501C274.235 170.685 272.506 169.958 272.251 170.611C271.997 171.264 273.316 173.056 275.409 173.875C277.502 174.694 279.409 174.825 279.664 174.172C279.918 173.519 278.425 172.32 276.332 171.501Z" fill="#FF1478"/>
<path opacity="0.1" d="M276.332 171.501C274.235 170.685 272.506 169.958 272.251 170.611C271.997 171.264 273.316 173.056 275.409 173.875C277.502 174.694 279.409 174.825 279.664 174.172C279.918 173.519 278.425 172.32 276.332 171.501Z" fill="black"/>
<path d="M276.314 171.522C274.274 170.727 272.618 169.935 272.402 170.492C272.186 171.05 273.493 172.742 275.533 173.537C277.573 174.333 279.403 174.528 279.619 173.974C279.835 173.419 278.36 172.306 276.314 171.522Z" fill="#FF1478"/>
<path opacity="0.3" d="M279.587 173.969C277.946 173.524 276.343 172.946 274.794 172.242C274.499 172.109 274.203 171.969 273.907 171.833C273.366 171.578 273 170.726 272.461 170.468" fill="#407D3B"/>
<path d="M272.837 184.6C270.741 183.781 269.011 183.054 268.757 183.71C268.503 184.366 269.821 186.155 271.918 186.975C274.014 187.794 275.915 187.924 276.169 187.271C276.423 186.618 274.93 185.417 272.837 184.6Z" fill="#FF1478"/>
<path opacity="0.1" d="M272.837 184.6C270.741 183.781 269.011 183.054 268.757 183.71C268.503 184.366 269.821 186.155 271.918 186.975C274.014 187.794 275.915 187.924 276.169 187.271C276.423 186.618 274.93 185.417 272.837 184.6Z" fill="black"/>
<path d="M272.824 184.604C270.784 183.809 269.129 183.019 268.913 183.574C268.697 184.129 270.004 185.824 272.044 186.622C274.084 187.421 275.914 187.613 276.13 187.055C276.346 186.498 274.865 185.402 272.824 184.604Z" fill="#FF1478"/>
<path opacity="0.3" d="M276.092 187.07C274.447 186.623 272.841 186.044 271.288 185.34C270.992 185.206 270.696 185.07 270.416 184.93C269.877 184.675 269.511 183.823 268.97 183.568" fill="#407D3B"/>
<path d="M272.044 187.321C269.909 188.025 268.112 188.565 268.331 189.236C268.549 189.906 270.696 190.444 272.836 189.74C274.977 189.037 276.523 187.924 276.313 187.25C276.104 186.577 274.179 186.615 272.044 187.321Z" fill="#FF1478"/>
<path opacity="0.1" d="M272.044 187.321C269.909 188.025 268.112 188.565 268.331 189.236C268.549 189.906 270.696 190.444 272.836 189.74C274.977 189.037 276.523 187.924 276.313 187.25C276.104 186.577 274.179 186.615 272.044 187.321Z" fill="black"/>
<path d="M272.038 187.332C269.968 188.017 268.194 188.462 268.366 189.032C268.537 189.602 270.631 190.074 272.712 189.388C274.794 188.703 276.328 187.685 276.142 187.118C275.956 186.551 274.12 186.658 272.038 187.332Z" fill="#FF1478"/>
<path opacity="0.3" d="M276.121 187.15C274.571 187.852 272.968 188.428 271.325 188.871L270.394 189.111C269.803 189.26 268.993 188.835 268.413 188.981" fill="#407D3B"/>
<path d="M288.41 158.636C288.82 156.941 286.407 154.898 283.019 154.071C279.631 153.245 276.553 153.949 276.142 155.643C275.732 157.338 278.146 159.381 281.533 160.208C284.921 161.034 288 160.33 288.41 158.636Z" fill="#FF1478"/>
<path opacity="0.1" d="M288.41 158.636C288.82 156.941 286.407 154.898 283.019 154.071C279.631 153.245 276.553 153.949 276.142 155.643C275.732 157.338 278.146 159.381 281.533 160.208C284.921 161.034 288 160.33 288.41 158.636Z" fill="black"/>
<path d="M288.245 158.613C288.623 157.054 286.255 155.137 282.956 154.333C279.657 153.528 276.677 154.14 276.299 155.699C275.922 157.258 278.29 159.174 281.589 159.979C284.887 160.784 287.868 160.172 288.245 158.613Z" fill="#FF1478"/>
<path opacity="0.3" d="M276.313 155.757C278.727 156.848 281.281 157.593 283.9 157.971C284.397 158.043 284.894 158.102 285.378 158.161L288.152 158.488" fill="#407D3B"/>
<path d="M279.153 149.654C279.923 146.241 279.174 143.162 277.48 142.777C275.785 142.392 273.787 144.847 273.017 148.259C272.247 151.672 272.997 154.751 274.691 155.136C276.386 155.522 278.383 153.067 279.153 149.654Z" fill="#FF1478"/>
<path opacity="0.1" d="M279.153 149.654C279.923 146.241 279.174 143.162 277.48 142.777C275.785 142.392 273.787 144.847 273.017 148.259C272.247 151.672 272.997 154.751 274.691 155.136C276.386 155.522 278.383 153.067 279.153 149.654Z" fill="black"/>
<path d="M278.924 149.603C279.673 146.28 279.017 143.298 277.458 142.944C275.899 142.589 274.027 144.996 273.278 148.32C272.528 151.643 273.184 154.624 274.743 154.979C276.302 155.333 278.174 152.926 278.924 149.603Z" fill="#FF1478"/>
<path opacity="0.3" d="M274.812 154.943C275.862 152.503 276.567 149.927 276.905 147.29C276.97 146.794 277.02 146.293 277.07 145.806L277.366 143.016" fill="#407D3B"/>
<path d="M276.006 163.415C276.776 160.002 276.027 156.923 274.332 156.538C272.638 156.153 270.64 158.608 269.87 162.02C269.1 165.433 269.849 168.512 271.544 168.897C273.238 169.283 275.236 166.828 276.006 163.415Z" fill="#FF1478"/>
<path opacity="0.1" d="M276.006 163.415C276.776 160.002 276.027 156.923 274.332 156.538C272.638 156.153 270.64 158.608 269.87 162.02C269.1 165.433 269.849 168.512 271.544 168.897C273.238 169.283 275.236 166.828 276.006 163.415Z" fill="black"/>
<path d="M275.776 163.364C276.525 160.041 275.869 157.059 274.31 156.705C272.751 156.35 270.879 158.757 270.13 162.081C269.38 165.404 270.036 168.385 271.595 168.74C273.154 169.094 275.026 166.687 275.776 163.364Z" fill="#FF1478"/>
<path opacity="0.3" d="M271.666 168.703C272.713 166.262 273.416 163.685 273.753 161.049C273.815 160.554 273.869 160.052 273.919 159.565L274.215 156.776" fill="#407D3B"/>
<path d="M273.077 155.328C273.487 153.634 271.074 151.59 267.686 150.764C264.298 149.937 261.22 150.641 260.809 152.336C260.399 154.03 262.813 156.074 266.2 156.9C269.588 157.727 272.667 157.023 273.077 155.328Z" fill="#FF1478"/>
<path opacity="0.1" d="M273.077 155.328C273.487 153.634 271.074 151.59 267.686 150.764C264.298 149.937 261.22 150.641 260.809 152.336C260.399 154.03 262.813 156.074 266.2 156.9C269.588 157.727 272.667 157.023 273.077 155.328Z" fill="black"/>
<path d="M272.911 155.308C273.289 153.749 270.921 151.833 267.622 151.028C264.323 150.223 261.343 150.835 260.965 152.394C260.588 153.953 262.956 155.87 266.255 156.674C269.553 157.479 272.534 156.868 272.911 155.308Z" fill="#FF1478"/>
<path opacity="0.3" d="M260.972 152.451C263.386 153.543 265.941 154.289 268.561 154.668C269.055 154.74 269.552 154.799 270.04 154.858L272.816 155.185" fill="#407D3B"/>
<path d="M281.224 164.433C282.408 163.532 281.908 160.869 280.107 158.486C278.306 156.103 275.886 154.901 274.702 155.803C273.518 156.704 274.019 159.367 275.819 161.75C277.62 164.133 280.04 165.334 281.224 164.433Z" fill="#FF1478"/>
<path opacity="0.1" d="M281.224 164.433C282.408 163.532 281.908 160.869 280.107 158.486C278.306 156.103 275.886 154.901 274.702 155.803C273.518 156.704 274.019 159.367 275.819 161.75C277.62 164.133 280.04 165.334 281.224 164.433Z" fill="black"/>
<path d="M281.126 164.33C282.215 163.501 281.675 160.947 279.921 158.625C278.166 156.303 275.861 155.093 274.772 155.922C273.684 156.751 274.223 159.306 275.978 161.627C277.732 163.949 280.037 165.159 281.126 164.33Z" fill="#FF1478"/>
<path opacity="0.3" d="M274.746 155.969C275.761 158 277.055 159.879 278.59 161.551C278.885 161.865 279.181 162.174 279.477 162.483L281.141 164.201" fill="#407D3B"/>
<path d="M274.173 157.301C275.362 156.406 274.876 153.741 273.088 151.348C271.3 148.955 268.887 147.74 267.698 148.635C266.51 149.53 266.995 152.195 268.783 154.588C270.571 156.981 272.985 158.196 274.173 157.301Z" fill="#FF1478"/>
<path opacity="0.1" d="M274.173 157.301C275.362 156.406 274.876 153.741 273.088 151.348C271.3 148.955 268.887 147.74 267.698 148.635C266.51 149.53 266.995 152.195 268.783 154.588C270.571 156.981 272.985 158.196 274.173 157.301Z" fill="black"/>
<path d="M273.955 155.327C275.044 154.498 274.505 151.944 272.75 149.622C270.996 147.3 268.69 146.09 267.602 146.919C266.513 147.748 267.052 150.303 268.807 152.624C270.561 154.946 272.866 156.156 273.955 155.327Z" fill="#FF1478"/>
<path opacity="0.3" d="M267.574 146.967C268.589 148.999 269.882 150.878 271.418 152.549C271.713 152.867 272.009 153.172 272.305 153.481L273.969 155.199" fill="#407D3B"/>
<path d="M279.322 154.571C281.349 153.028 282.37 150.954 281.603 149.94C280.836 148.925 278.571 149.354 276.545 150.897C274.518 152.441 273.497 154.515 274.264 155.529C275.031 156.544 277.295 156.115 279.322 154.571Z" fill="#FF1478"/>
<path opacity="0.1" d="M279.322 154.571C281.349 153.028 282.37 150.954 281.603 149.94C280.836 148.925 278.571 149.354 276.545 150.897C274.518 152.441 273.497 154.515 274.264 155.529C275.031 156.544 277.295 156.115 279.322 154.571Z" fill="black"/>
<path d="M279.202 154.414C281.176 152.91 282.206 150.935 281.501 150.003C280.796 149.071 278.624 149.534 276.65 151.038C274.675 152.542 273.646 154.517 274.35 155.449C275.055 156.381 277.227 155.918 279.202 154.414Z" fill="#FF1478"/>
<path opacity="0.3" d="M281.44 149.956C279.711 150.824 278.113 151.932 276.692 153.247C276.423 153.493 276.162 153.748 275.899 154.003L274.421 155.431" fill="#407D3B"/>
<path d="M271.807 160.073C274.012 158.8 275.288 156.873 274.655 155.769C274.023 154.665 271.722 154.802 269.517 156.075C267.311 157.348 266.036 159.275 266.669 160.379C267.301 161.483 269.602 161.346 271.807 160.073Z" fill="#FF1478"/>
<path opacity="0.1" d="M271.807 160.073C274.012 158.8 275.288 156.873 274.655 155.769C274.023 154.665 271.722 154.802 269.517 156.075C267.311 157.348 266.036 159.275 266.669 160.379C267.301 161.483 269.602 161.346 271.807 160.073Z" fill="black"/>
<path d="M271.709 159.901C273.858 158.661 275.129 156.833 274.548 155.819C273.966 154.804 271.753 154.987 269.605 156.227C267.456 157.468 266.185 159.296 266.766 160.31C267.347 161.325 269.56 161.142 271.709 159.901Z" fill="#FF1478"/>
<path opacity="0.3" d="M266.77 160.22C268.241 158.96 269.88 157.913 271.64 157.11C271.971 156.958 272.308 156.813 272.642 156.673L274.522 155.875" fill="#407D3B"/>
<path d="M274.256 155.679C274.689 155.343 274.496 154.365 273.826 153.495C273.155 152.625 272.261 152.192 271.828 152.528C271.396 152.864 271.588 153.842 272.259 154.712C272.929 155.582 273.823 156.015 274.256 155.679Z" fill="#FF1478"/>
<path opacity="0.1" d="M274.256 155.679C274.689 155.343 274.496 154.365 273.826 153.495C273.155 152.625 272.261 152.192 271.828 152.528C271.396 152.864 271.588 153.842 272.259 154.712C272.929 155.582 273.823 156.015 274.256 155.679Z" fill="black"/>
<path d="M274.232 155.636C274.63 155.327 274.422 154.39 273.769 153.542C273.116 152.694 272.264 152.257 271.866 152.566C271.468 152.875 271.675 153.812 272.328 154.66C272.982 155.508 273.834 155.945 274.232 155.636Z" fill="#FF1478"/>
<path opacity="0.3" d="M271.894 152.563C272.515 153.121 273.055 153.762 273.499 154.469C273.582 154.602 273.665 154.736 273.745 154.872L274.194 155.629" fill="#407D3B"/>
<path d="M276.732 158.877C277.165 158.541 276.973 157.563 276.302 156.693C275.632 155.823 274.738 155.391 274.305 155.726C273.872 156.062 274.065 157.04 274.735 157.91C275.406 158.78 276.3 159.213 276.732 158.877Z" fill="#FF1478"/>
<path opacity="0.1" d="M276.732 158.877C277.165 158.541 276.973 157.563 276.302 156.693C275.632 155.823 274.738 155.391 274.305 155.726C273.872 156.062 274.065 157.04 274.735 157.91C275.406 158.78 276.3 159.213 276.732 158.877Z" fill="black"/>
<path d="M276.703 158.833C277.101 158.524 276.894 157.586 276.24 156.739C275.587 155.891 274.735 155.454 274.337 155.763C273.939 156.071 274.146 157.009 274.8 157.857C275.453 158.705 276.305 159.142 276.703 158.833Z" fill="#FF1478"/>
<path opacity="0.3" d="M274.365 155.76C274.988 156.317 275.529 156.958 275.974 157.666C276.056 157.799 276.136 157.933 276.216 158.069L276.665 158.826" fill="#407D3B"/>
<path d="M274.298 156.122C274.52 156.122 274.7 155.942 274.7 155.719C274.7 155.496 274.52 155.315 274.298 155.315C274.076 155.315 273.896 155.496 273.896 155.719C273.896 155.942 274.076 156.122 274.298 156.122Z" fill="#FF1478"/>
<path opacity="0.3" d="M274.298 156.122C274.52 156.122 274.7 155.942 274.7 155.719C274.7 155.496 274.52 155.315 274.298 155.315C274.076 155.315 273.896 155.496 273.896 155.719C273.896 155.942 274.076 156.122 274.298 156.122Z" fill="#407D3B"/>
<g opacity="0.1">
<path opacity="0.1" d="M26.5509 176.386C26.3579 174.088 26.3857 171.776 26.6337 169.483C26.6337 169.38 26.6544 169.273 26.6662 169.166C26.6869 168.976 26.7106 168.783 26.7342 168.587C26.7342 168.528 26.7342 168.465 26.7579 168.403C26.7845 168.175 26.817 167.94 26.8525 167.703C26.8512 167.695 26.8512 167.687 26.8525 167.679C27.4237 163.791 28.4806 159.991 29.9983 156.369L30.1107 156.105C30.1491 156.013 30.1875 155.918 30.2289 155.823C30.2703 155.728 30.2762 155.716 30.2969 155.663C30.3176 155.609 30.3354 155.574 30.3531 155.529C30.4536 155.286 30.5482 155.048 30.6488 154.814V154.784C32.0591 151.021 32.062 147.959 31.4441 145.531C31.4234 145.448 31.4027 145.368 31.379 145.288C30.9975 143.903 30.3749 142.597 29.54 141.43L29.4011 141.243C29.3094 141.115 29.2119 140.99 29.1054 140.869C28.2496 139.803 27.246 138.865 26.1252 138.085L25.9419 137.96C25.8472 137.895 25.7556 137.836 25.6698 137.782C25.5841 137.729 25.5131 137.681 25.4422 137.64C25.3091 137.557 25.1879 137.485 25.0815 137.423L24.9041 137.328C24.6705 137.198 24.5256 137.132 24.502 137.12L24.4665 137.201L24.4103 137.322V137.352V137.367L24.3808 137.426V137.444V137.465L24.3364 137.566V137.583L24.3009 137.667V137.69L24.227 137.856L24.0762 138.189L24.0585 138.23L24.023 138.305L23.9875 138.388L23.9077 138.563L24.0201 138.619L24.0851 138.655C24.0908 138.653 24.0971 138.653 24.1029 138.655H24.1206L24.1561 138.673L24.2241 138.708L24.4281 138.824L24.5582 138.898C24.7976 139.041 25.0874 139.228 25.4097 139.456L25.7053 139.679L25.8472 139.785C25.9862 139.892 26.1429 140.011 26.2759 140.133L26.3972 140.243C26.48 140.311 26.5657 140.388 26.6485 140.465L26.6869 140.501C26.9294 140.726 27.1748 140.97 27.4172 141.237C27.7339 141.583 28.0301 141.948 28.3042 142.329C28.3988 142.459 28.4875 142.593 28.5762 142.726C28.8758 143.183 29.1397 143.662 29.3656 144.16C29.6616 144.809 29.8895 145.487 30.0456 146.184C30.0583 146.231 30.0682 146.278 30.0752 146.326C30.6074 148.816 30.2614 151.597 29.0374 154.636C29.0386 154.647 29.0386 154.658 29.0374 154.669C28.9724 154.829 28.9073 154.989 28.8364 155.152V155.173C28.8186 155.212 28.8009 155.253 28.7861 155.292L28.5791 155.784C28.5348 155.888 28.4934 155.992 28.452 156.081C26.9652 159.7 25.9208 163.487 25.3417 167.358C25.3417 167.358 25.3417 167.379 25.3417 167.388C25.3091 167.611 25.2766 167.83 25.25 168.047V168.115C25.2486 168.125 25.2486 168.135 25.25 168.145V168.198C25.2293 168.37 25.2086 168.543 25.1909 168.712L25.1731 168.878C25.1731 168.925 25.1731 168.97 25.1584 169.017C25.1347 169.215 25.114 169.413 25.0963 169.611C25.0805 169.753 25.0687 169.893 25.0608 170.029C24.9042 171.822 24.8775 173.623 24.981 175.419L26.5509 176.386Z" fill="#FF1478"/>
<path opacity="0.1" d="M33.393 154.223C35.6075 154.033 37.4494 153.826 37.5086 154.52C37.5677 155.215 35.8203 156.544 33.6059 156.734C31.3914 156.924 29.5464 156.517 29.4873 155.826C29.4282 155.134 31.1755 154.413 33.393 154.223Z" fill="#FF1478"/>
<path opacity="0.1" d="M33.393 154.223C35.6075 154.033 37.4494 153.826 37.5086 154.52C37.5677 155.215 35.8203 156.544 33.6059 156.734C31.3914 156.924 29.5464 156.517 29.4873 155.826C29.4282 155.134 31.1755 154.413 33.393 154.223Z" fill="#FF1478"/>
<path opacity="0.1" d="M33.3986 154.232C35.5569 154.045 37.3486 153.757 37.3989 154.348C37.4492 154.938 35.7403 156.179 33.5819 156.363C31.4236 156.547 29.6319 156.223 29.5816 155.633C29.5314 155.042 31.2403 154.416 33.3986 154.232Z" fill="#FF1478"/>
<path opacity="0.3" d="M29.6143 155.656C31.2949 155.692 32.9756 155.592 34.6405 155.359L35.5836 155.214C36.175 155.122 36.7515 154.415 37.334 154.323L29.6143 155.656Z" fill="#FF1478"/>
<path opacity="0.1" d="M29.5078 167.15C31.7222 166.96 33.5672 166.752 33.6263 167.447C33.6854 168.141 31.9351 169.471 29.7206 169.661C27.5061 169.851 25.6612 169.444 25.5932 168.75C25.5252 168.055 27.2903 167.34 29.5078 167.15Z" fill="#FF1478"/>
<path opacity="0.1" d="M29.5078 167.15C31.7222 166.96 33.5672 166.752 33.6263 167.447C33.6854 168.141 31.9351 169.471 29.7206 169.661C27.5061 169.851 25.6612 169.444 25.5932 168.75C25.5252 168.055 27.2903 167.34 29.5078 167.15Z" fill="#FF1478"/>
<path opacity="0.1" d="M29.5138 167.156C31.6721 166.972 33.4638 166.684 33.5141 167.272C33.5644 167.859 31.8555 169.103 29.6971 169.29C27.5388 169.477 25.7501 169.147 25.6998 168.554C25.6495 167.96 27.3673 167.343 29.5138 167.156Z" fill="#FF1478"/>
<path opacity="0.3" d="M25.729 168.584C27.4096 168.621 29.0905 168.522 30.7552 168.287C31.0716 168.243 31.385 168.192 31.6984 168.145C32.2897 168.053 32.881 167.347 33.4487 167.255L25.729 168.584Z" fill="#FF1478"/>
<path opacity="0.1" d="M26.1843 153.084C24.1147 152.276 22.4028 151.555 22.1515 152.193C21.9002 152.831 23.204 154.612 25.2737 155.419C27.3433 156.226 29.2296 156.36 29.4809 155.716C29.7322 155.072 28.2539 153.894 26.1843 153.084Z" fill="#FF1478"/>
<path opacity="0.1" d="M26.1843 153.084C24.1147 152.276 22.4028 151.555 22.1515 152.193C21.9002 152.831 23.204 154.612 25.2737 155.419C27.3433 156.226 29.2296 156.36 29.4809 155.716C29.7322 155.072 28.2539 153.894 26.1843 153.084Z" fill="#FF1478"/>
<path opacity="0.1" d="M26.1841 153.09C24.1647 152.301 22.5268 151.52 22.3139 152.069C22.101 152.618 23.393 154.295 25.4094 155.084C27.4258 155.874 29.2382 156.064 29.4511 155.515C29.664 154.966 28.1886 153.876 26.1841 153.09Z" fill="#FF1478"/>
<path opacity="0.3" d="M29.4039 155.526C27.7839 155.085 26.202 154.513 24.6733 153.817L23.7982 153.419C23.266 153.167 22.9112 152.324 22.3672 152.072L29.4039 155.526Z" fill="#FF1478"/>
<path opacity="0.1" d="M22.7249 166.041C20.6552 165.231 18.9404 164.513 18.6891 165.151C18.4378 165.789 19.7416 167.569 21.8142 168.377C23.8868 169.184 25.7702 169.317 26.0215 168.673C26.2728 168.029 24.7974 166.851 22.7249 166.041Z" fill="#FF1478"/>
<path opacity="0.1" d="M22.7249 166.041C20.6552 165.231 18.9404 164.513 18.6891 165.151C18.4378 165.789 19.7416 167.569 21.8142 168.377C23.8868 169.184 25.7702 169.317 26.0215 168.673C26.2728 168.029 24.7974 166.851 22.7249 166.041Z" fill="#FF1478"/>
<path opacity="0.1" d="M22.7168 166.047C20.6975 165.257 19.0595 164.477 18.8466 165.026C18.6338 165.575 19.9228 167.252 21.9422 168.041C23.9616 168.831 25.771 169.02 25.9839 168.471C26.1968 167.922 24.7332 166.833 22.7168 166.047Z" fill="#FF1478"/>
<path opacity="0.3" d="M25.9477 168.482C24.3278 168.041 22.7458 167.469 21.2172 166.773L20.3538 166.366C19.8217 166.114 19.4669 165.271 18.9229 165.019L25.9477 168.482Z" fill="#FF1478"/>
<path opacity="0.1" d="M21.9419 168.733C19.8308 169.43 18.0539 169.964 18.2698 170.626C18.4856 171.288 20.6143 171.813 22.7254 171.128C24.8364 170.442 26.3738 169.329 26.158 168.67C25.9421 168.011 24.0558 168.038 21.9419 168.733Z" fill="#FF1478"/>
<path opacity="0.1" d="M21.9419 168.733C19.8308 169.43 18.0539 169.964 18.2698 170.626C18.4856 171.288 20.6143 171.813 22.7254 171.128C24.8364 170.442 26.3738 169.329 26.158 168.67C25.9421 168.011 24.0558 168.038 21.9419 168.733Z" fill="#FF1478"/>
<path opacity="0.1" d="M21.9359 168.744C19.8662 169.421 18.1189 169.863 18.3051 170.424C18.4914 170.985 20.5433 171.454 22.6011 170.777C24.6589 170.101 26.1786 169.091 25.9953 168.531C25.812 167.97 23.9936 168.065 21.9359 168.744Z" fill="#FF1478"/>
<path opacity="0.3" d="M25.9777 168.555C24.4447 169.251 22.8576 169.821 21.2323 170.258C20.9366 170.341 20.6173 170.418 20.3098 170.495C19.7363 170.641 18.9232 170.222 18.3496 170.368L25.9777 168.555Z" fill="#FF1478"/>
<path opacity="0.1" d="M38.1158 140.348C38.5218 138.67 36.1344 136.648 32.7833 135.831C29.4322 135.013 26.3864 135.71 25.9804 137.387C25.5743 139.064 27.9617 141.086 31.3128 141.904C34.6639 142.721 37.7097 142.025 38.1158 140.348Z" fill="#FF1478"/>
<path opacity="0.1" d="M38.1158 140.348C38.5218 138.67 36.1344 136.648 32.7833 135.831C29.4322 135.013 26.3864 135.71 25.9804 137.387C25.5743 139.064 27.9617 141.086 31.3128 141.904C34.6639 142.721 37.7097 142.025 38.1158 140.348Z" fill="#FF1478"/>
<path opacity="0.1" d="M37.9533 140.328C38.3266 138.787 35.9833 136.891 32.7195 136.095C29.4557 135.299 26.5072 135.903 26.1339 137.445C25.7606 138.987 28.1039 140.882 31.3677 141.678C34.6316 142.474 37.58 141.87 37.9533 140.328Z" fill="#FF1478"/>
<path opacity="0.3" d="M26.1577 137.506C28.5468 138.585 31.0746 139.324 33.6675 139.7C34.1553 139.771 34.6491 139.827 35.1458 139.887L37.8895 140.207L26.1577 137.506Z" fill="#FF1478"/>
<path opacity="0.1" d="M28.9642 131.47C29.7259 128.093 28.9839 125.047 27.307 124.666C25.63 124.285 23.6531 126.713 22.8914 130.089C22.1297 133.465 22.8717 136.511 24.5486 136.892C26.2256 137.273 28.2025 134.846 28.9642 131.47Z" fill="#FF1478"/>
<path opacity="0.1" d="M28.9642 131.47C29.7259 128.093 28.9839 125.047 27.307 124.666C25.63 124.285 23.6531 126.713 22.8914 130.089C22.1297 133.465 22.8717 136.511 24.5486 136.892C26.2256 137.273 28.2025 134.846 28.9642 131.47Z" fill="#FF1478"/>
<path opacity="0.1" d="M28.735 131.418C29.4768 128.13 28.8285 125.18 27.2869 124.829C25.7453 124.479 23.8942 126.861 23.1523 130.149C22.4105 133.437 23.0588 136.387 24.6004 136.737C26.142 137.088 27.9931 134.706 28.735 131.418Z" fill="#FF1478"/>
<path opacity="0.3" d="M24.6797 136.702C25.7166 134.288 26.4132 131.741 26.7493 129.134C26.8114 128.642 26.8617 128.146 26.9119 127.65L27.1898 124.89L24.6797 136.702Z" fill="#FF1478"/>
<path opacity="0.1" d="M25.8519 145.08C26.6136 141.704 25.8716 138.658 24.1947 138.277C22.5177 137.896 20.5408 140.324 19.7791 143.7C19.0174 147.076 19.7593 150.122 21.4363 150.503C23.1133 150.884 25.0902 148.456 25.8519 145.08Z" fill="#FF1478"/>
<path opacity="0.1" d="M25.8519 145.08C26.6136 141.704 25.8716 138.658 24.1947 138.277C22.5177 137.896 20.5408 140.324 19.7791 143.7C19.0174 147.076 19.7593 150.122 21.4363 150.503C23.1133 150.884 25.0902 148.456 25.8519 145.08Z" fill="#FF1478"/>
<path opacity="0.1" d="M25.6251 145.031C26.367 141.743 25.7186 138.793 24.177 138.443C22.6354 138.092 20.7843 140.474 20.0425 143.762C19.3006 147.05 19.9489 150 21.4905 150.35C23.0321 150.701 24.8832 148.319 25.6251 145.031Z" fill="#FF1478"/>
<path opacity="0.3" d="M21.5659 150.314C22.6052 147.9 23.3019 145.352 23.6355 142.744C23.6976 142.251 23.7479 141.756 23.7982 141.26L24.0761 138.5L21.5659 150.314Z" fill="#FF1478"/>
<path opacity="0.1" d="M22.9439 137.08C23.35 135.403 20.9625 133.381 17.6114 132.563C14.2603 131.746 11.2145 132.442 10.8085 134.12C10.4024 135.797 12.7899 137.819 16.141 138.636C19.4921 139.454 22.5379 138.757 22.9439 137.08Z" fill="#FF1478"/>
<path opacity="0.1" d="M22.9439 137.08C23.35 135.403 20.9625 133.381 17.6114 132.563C14.2603 131.746 11.2145 132.442 10.8085 134.12C10.4024 135.797 12.7899 137.819 16.141 138.636C19.4921 139.454 22.5379 138.757 22.9439 137.08Z" fill="#FF1478"/>
<path opacity="0.1" d="M22.7809 137.059C23.1542 135.518 20.811 133.623 17.5471 132.826C14.2833 132.03 11.3348 132.634 10.9615 134.176C10.5882 135.718 12.9315 137.613 16.1953 138.409C19.4592 139.206 22.4077 138.601 22.7809 137.059Z" fill="#FF1478"/>
<path opacity="0.3" d="M10.9878 134.239C13.3769 135.318 15.9047 136.056 18.4976 136.432C18.9854 136.503 19.4792 136.559 19.9759 136.616L22.7196 136.939L10.9878 134.239Z" fill="#FF1478"/>
<path opacity="0.1" d="M31.016 146.077C32.1869 145.186 31.6922 142.552 29.911 140.195C28.1299 137.838 25.7368 136.65 24.5659 137.541C23.395 138.433 23.8897 141.066 25.6709 143.423C27.452 145.781 29.8451 146.969 31.016 146.077Z" fill="#FF1478"/>
<path opacity="0.1" d="M31.016 146.077C32.1869 145.186 31.6922 142.552 29.911 140.195C28.1299 137.838 25.7368 136.65 24.5659 137.541C23.395 138.433 23.8897 141.066 25.6709 143.423C27.452 145.781 29.8451 146.969 31.016 146.077Z" fill="#FF1478"/>
<path opacity="0.1" d="M30.9203 145.977C31.9975 145.157 31.4637 142.63 29.7279 140.333C27.9921 138.036 25.7118 136.839 24.6346 137.659C23.5573 138.479 24.0912 141.006 25.827 143.303C27.5627 145.6 29.8431 146.798 30.9203 145.977Z" fill="#FF1478"/>
<path opacity="0.3" d="M24.6177 137.716C25.6204 139.726 26.8982 141.585 28.414 143.239C28.7096 143.536 29.0053 143.856 29.3009 144.159L30.9478 145.859L24.6177 137.716Z" fill="#FF1478"/>
<path opacity="0.1" d="M23.9174 137.169C25.0883 136.278 24.5936 133.644 22.8124 131.287C21.0313 128.93 18.6381 127.742 17.4673 128.634C16.2964 129.525 16.7911 132.158 18.5722 134.516C20.3534 136.873 22.7465 138.061 23.9174 137.169Z" fill="#FF1478"/>
<path opacity="0.1" d="M23.9174 137.169C25.0883 136.278 24.5936 133.644 22.8124 131.287C21.0313 128.93 18.6381 127.742 17.4673 128.634C16.2964 129.525 16.7911 132.158 18.5722 134.516C20.3534 136.873 22.7465 138.061 23.9174 137.169Z" fill="#FF1478"/>
<path opacity="0.1" d="M23.8241 137.071C24.9013 136.251 24.3675 133.724 22.6317 131.427C20.8959 129.13 18.6156 127.932 17.5384 128.753C16.4611 129.573 16.995 132.1 18.7308 134.397C20.4665 136.694 22.7469 137.891 23.8241 137.071Z" fill="#FF1478"/>
<path opacity="0.1" d="M29.132 136.32C31.1379 134.792 32.1486 132.739 31.3896 131.735C30.6306 130.731 28.3892 131.156 26.3834 132.683C24.3775 134.211 23.3668 136.264 24.1258 137.268C24.8848 138.272 27.1262 137.847 29.132 136.32Z" fill="#FF1478"/>
<path opacity="0.1" d="M29.132 136.32C31.1379 134.792 32.1486 132.739 31.3896 131.735C30.6306 130.731 28.3892 131.156 26.3834 132.683C24.3775 134.211 23.3668 136.264 24.1258 137.268C24.8848 138.272 27.1262 137.847 29.132 136.32Z" fill="#FF1478"/>
<path opacity="0.1" d="M29.0115 136.163C30.9654 134.675 31.9835 132.72 31.2857 131.797C30.5879 130.874 28.4383 131.332 26.4845 132.82C24.5307 134.308 23.5125 136.263 24.2103 137.186C24.9081 138.109 27.0577 137.651 29.0115 136.163Z" fill="#FF1478"/>
<path opacity="0.3" d="M31.2374 131.755C29.5275 132.618 27.9462 133.717 26.5393 135.019C26.2762 135.266 26.016 135.518 25.7558 135.77L24.3101 137.183L31.2374 131.755Z" fill="#FF1478"/>
<path opacity="0.1" d="M21.698 141.762C23.8808 140.502 25.1428 138.595 24.5169 137.502C23.8909 136.409 21.614 136.545 19.4313 137.805C17.2485 139.065 15.9864 140.972 16.6124 142.064C17.2383 143.157 19.5152 143.021 21.698 141.762Z" fill="#FF1478"/>
<path opacity="0.1" d="M21.698 141.762C23.8808 140.502 25.1428 138.595 24.5169 137.502C23.8909 136.409 21.614 136.545 19.4313 137.805C17.2485 139.065 15.9864 140.972 16.6124 142.064C17.2383 143.157 19.5152 143.021 21.698 141.762Z" fill="#FF1478"/>
<path opacity="0.1" d="M21.6017 141.589C23.7278 140.362 24.9849 138.553 24.4094 137.548C23.8339 136.544 21.6438 136.724 19.5177 137.952C17.3915 139.179 16.1345 140.988 16.71 141.992C17.2854 142.997 19.4755 142.816 21.6017 141.589Z" fill="#FF1478"/>
<path opacity="0.3" d="M16.7236 141.925C18.1774 140.678 19.7987 139.642 21.5399 138.848C21.8681 138.699 22.2022 138.551 22.5333 138.414L24.3931 137.628L16.7236 141.925Z" fill="#FF1478"/>
<path opacity="0.1" d="M24.1348 137.431C24.5623 137.099 24.3711 136.132 23.7078 135.272C23.0445 134.411 22.1601 133.982 21.7326 134.314C21.3051 134.646 21.4962 135.613 22.1596 136.474C22.8229 137.334 23.7072 137.763 24.1348 137.431Z" fill="#FF1478"/>
<path opacity="0.1" d="M24.1348 137.431C24.5623 137.099 24.3711 136.132 23.7078 135.272C23.0445 134.411 22.1601 133.982 21.7326 134.314C21.3051 134.646 21.4962 135.613 22.1596 136.474C22.8229 137.334 23.7072 137.763 24.1348 137.431Z" fill="#FF1478"/>
<path opacity="0.1" d="M24.1078 137.39C24.5004 137.085 24.2948 136.158 23.6484 135.319C23.0021 134.48 22.1598 134.047 21.7671 134.352C21.3745 134.657 21.5801 135.584 22.2265 136.423C22.8728 137.262 23.7151 137.694 24.1078 137.39Z" fill="#FF1478"/>
<path opacity="0.3" d="M21.791 134.348C22.4067 134.898 22.9422 135.533 23.3817 136.233C23.4644 136.363 23.5443 136.5 23.6241 136.634L24.0676 137.381L21.791 134.348Z" fill="#FF1478"/>
<path opacity="0.1" d="M26.583 140.593C27.0105 140.261 26.8194 139.294 26.156 138.433C25.4927 137.572 24.6084 137.144 24.1808 137.475C23.7533 137.807 23.9445 138.774 24.6078 139.635C25.2712 140.496 26.1555 140.925 26.583 140.593Z" fill="#FF1478"/>
<path opacity="0.1" d="M26.583 140.593C27.0105 140.261 26.8194 139.294 26.156 138.433C25.4927 137.572 24.6084 137.144 24.1808 137.475C23.7533 137.807 23.9445 138.774 24.6078 139.635C25.2712 140.496 26.1555 140.925 26.583 140.593Z" fill="#FF1478"/>
<path opacity="0.1" d="M26.5541 140.55C26.9467 140.245 26.7411 139.318 26.0947 138.479C25.4484 137.64 24.6061 137.207 24.2134 137.512C23.8208 137.817 24.0264 138.744 24.6728 139.583C25.3191 140.422 26.1614 140.855 26.5541 140.55Z" fill="#FF1478"/>
<path opacity="0.3" d="M24.2388 137.512C24.8534 138.062 25.3888 138.695 25.8294 139.393C25.9122 139.527 25.992 139.66 26.0719 139.794L26.5154 140.545L24.2388 137.512Z" fill="#FF1478"/>
<path opacity="0.1" d="M24.1711 137.869C24.3899 137.869 24.5673 137.69 24.5673 137.471C24.5673 137.251 24.3899 137.073 24.1711 137.073C23.9523 137.073 23.7749 137.251 23.7749 137.471C23.7749 137.69 23.9523 137.869 24.1711 137.869Z" fill="#FF1478"/>
<path opacity="0.3" d="M24.1711 137.869C24.3899 137.869 24.5673 137.69 24.5673 137.471C24.5673 137.251 24.3899 137.073 24.1711 137.073C23.9523 137.073 23.7749 137.251 23.7749 137.471C23.7749 137.69 23.9523 137.869 24.1711 137.869Z" fill="#FF1478"/>
</g>
<defs>
<linearGradient id="paint0_linear" x1="86.9785" y1="67.6402" x2="86.9785" y2="47.7566" gradientUnits="userSpaceOnUse">
<stop stop-color="#808080" stop-opacity="0.25"/>
<stop offset="0.54" stop-color="#808080" stop-opacity="0.12"/>
<stop offset="1" stop-color="#808080" stop-opacity="0.1"/>
</linearGradient>
<linearGradient id="paint1_linear" x1="4916.41" y1="8412.1" x2="4916.41" y2="7307.74" gradientUnits="userSpaceOnUse">
<stop stop-color="#808080" stop-opacity="0.25"/>
<stop offset="0.54" stop-color="#808080" stop-opacity="0.12"/>
<stop offset="1" stop-color="#808080" stop-opacity="0.1"/>
</linearGradient>
</defs>
</svg>
