<svg width="320" height="200" viewBox="0 0 320 200" fill="none" xmlns="http://www.w3.org/2000/svg">
<path d="M221.472 26.7426C113.956 -37.6098 57.25 57.1704 56.3766 57.1544C31.5618 56.7015 14.7032 73.5931 10.0341 93.3591C4.45547 116.976 12.7336 133.519 15.0238 138.096L15.1023 138.253C15.6613 139.372 15.4825 140.697 15.7038 141.874C22.6319 178.7 49.6297 186.043 65.0669 186.043L269.262 186.044C271.433 186.044 299.673 183.157 304.019 148.39C304.163 147.234 305.284 146.465 305.848 145.504C325.229 112.506 292.069 80.9568 291.708 77.4388C283.019 -7.28054 222.73 27.496 221.472 26.7426Z" fill="#FF1478" fill-opacity="0.2"/>
<path d="M259.869 31.1846H60.5269C57.4683 31.1846 54.9888 34.0696 54.9888 37.6285V190.51C54.9888 194.069 57.4683 196.954 60.5269 196.954H259.869C262.928 196.954 265.407 194.069 265.407 190.51V37.6285C265.407 34.0696 262.928 31.1846 259.869 31.1846Z" fill="#F2F2F2"/>
<path d="M253.337 22.978H55.552C52.5173 22.978 50.0571 25.806 50.0571 29.2944V179.149C50.0571 182.637 52.5173 185.465 55.552 185.465H253.337C256.372 185.465 258.832 182.637 258.832 179.149V29.2944C258.832 25.806 256.372 22.978 253.337 22.978Z" fill="white" stroke="#3F3D56" stroke-miterlimit="10"/>
<path d="M50.0571 37.7496H258.832" stroke="#3F3D56" stroke-miterlimit="10"/>
<path opacity="0.3" d="M227.559 85.3469H183.251C182.322 85.3469 181.568 86.3556 181.568 87.5999V92.9415C181.568 94.1858 182.322 95.1946 183.251 95.1946H227.559C228.488 95.1946 229.241 94.1858 229.241 92.9415V87.5999C229.241 86.3556 228.488 85.3469 227.559 85.3469Z" fill="#FF1478"/>
<path opacity="0.3" d="M237.386 111.607H173.425C172.475 111.607 171.706 112.441 171.706 113.47V116.31C171.706 117.339 172.475 118.173 173.425 118.173H237.386C238.335 118.173 239.105 117.339 239.105 116.31V113.47C239.105 112.441 238.335 111.607 237.386 111.607Z" fill="#FF1478"/>
<path opacity="0.3" d="M237.386 131.303H173.425C172.475 131.303 171.706 132.345 171.706 133.631V137.181C171.706 138.467 172.475 139.509 173.425 139.509H237.386C238.335 139.509 239.105 138.467 239.105 137.181V133.631C239.105 132.345 238.335 131.303 237.386 131.303Z" fill="#FF1478"/>
<path opacity="0.3" d="M237.386 152.639H173.425C172.475 152.639 171.706 153.473 171.706 154.502V157.342C171.706 158.371 172.475 159.205 173.425 159.205H237.386C238.335 159.205 239.105 158.371 239.105 157.342V154.502C239.105 153.473 238.335 152.639 237.386 152.639Z" fill="#FF1478"/>
<path d="M230.847 82.0644H186.539C185.61 82.0644 184.856 83.0731 184.856 84.3175V89.6591C184.856 90.9034 185.61 91.9121 186.539 91.9121H230.847C231.776 91.9121 232.529 90.9034 232.529 89.6591V84.3175C232.529 83.0731 231.776 82.0644 230.847 82.0644Z" stroke="#3F3D56" stroke-miterlimit="10"/>
<path d="M240.631 108.325H175.11C174.137 108.325 173.349 109.367 173.349 110.653V114.203C173.349 115.489 174.137 116.531 175.11 116.531H240.631C241.604 116.531 242.392 115.489 242.392 114.203V110.653C242.392 109.367 241.604 108.325 240.631 108.325Z" stroke="#3F3D56" stroke-miterlimit="10"/>
<path d="M240.631 128.02H175.11C174.137 128.02 173.349 129.063 173.349 130.348V133.898C173.349 135.184 174.137 136.227 175.11 136.227H240.631C241.604 136.227 242.392 135.184 242.392 133.898V130.348C242.392 129.063 241.604 128.02 240.631 128.02Z" stroke="#3F3D56" stroke-miterlimit="10"/>
<path d="M240.631 149.357H175.11C174.137 149.357 173.349 150.191 173.349 151.219V154.06C173.349 155.088 174.137 155.922 175.11 155.922H240.631C241.604 155.922 242.392 155.088 242.392 154.06V151.219C242.392 150.191 241.604 149.357 240.631 149.357Z" stroke="#3F3D56" stroke-miterlimit="10"/>
<path opacity="0.3" d="M66.4952 37.7495C69.2189 37.7495 71.4269 35.545 71.4269 32.8257C71.4269 30.1063 69.2189 27.9018 66.4952 27.9018C63.7715 27.9018 61.5635 30.1063 61.5635 32.8257C61.5635 35.545 63.7715 37.7495 66.4952 37.7495Z" fill="#FF1478"/>
<path opacity="0.3" d="M78.8246 37.7495C81.0943 37.7495 82.9343 35.545 82.9343 32.8257C82.9343 30.1063 81.0943 27.9018 78.8246 27.9018C76.5548 27.9018 74.7148 30.1063 74.7148 32.8257C74.7148 35.545 76.5548 37.7495 78.8246 37.7495Z" fill="#FF1478"/>
<path opacity="0.3" d="M91.9755 37.7495C94.2452 37.7495 96.0852 35.545 96.0852 32.8257C96.0852 30.1063 94.2452 27.9018 91.9755 27.9018C89.7057 27.9018 87.8657 30.1063 87.8657 32.8257C87.8657 35.545 89.7057 37.7495 91.9755 37.7495Z" fill="#FF1478"/>
<path d="M68.1397 34.467C70.8634 34.467 73.0714 32.2625 73.0714 29.5431C73.0714 26.8237 70.8634 24.6193 68.1397 24.6193C65.416 24.6193 63.208 26.8237 63.208 29.5431C63.208 32.2625 65.416 34.467 68.1397 34.467Z" stroke="#3F3D56" stroke-miterlimit="10"/>
<path d="M81.2911 34.467C84.0148 34.467 86.2227 32.2625 86.2227 29.5431C86.2227 26.8237 84.0148 24.6193 81.2911 24.6193C78.5674 24.6193 76.3594 26.8237 76.3594 29.5431C76.3594 32.2625 78.5674 34.467 81.2911 34.467Z" stroke="#3F3D56" stroke-miterlimit="10"/>
<path d="M93.6205 34.467C95.8902 34.467 97.7302 32.2625 97.7302 29.5431C97.7302 26.8237 95.8902 24.6193 93.6205 24.6193C91.3507 24.6193 89.5107 26.8237 89.5107 29.5431C89.5107 32.2625 91.3507 34.467 93.6205 34.467Z" stroke="#3F3D56" stroke-miterlimit="10"/>
<path d="M119.866 181.015C119.106 177.534 118.905 172.779 119.16 169.471C119.16 169.471 115.317 152.683 112.293 151.117L112.292 151.118C112.246 151.177 110.778 153.09 110.592 159.01C110.403 165.023 108.262 168.969 108.262 168.969C108.262 168.969 108.955 176.465 108.558 181.015L119.866 181.015Z" fill="#FF1478"/>
<path d="M148.097 62.3688H78.5968C77.6553 62.3688 76.7231 62.5707 75.8533 62.9628C74.9835 63.355 74.1932 63.9297 73.5275 64.6543C72.8618 65.3789 72.3337 66.2392 71.9734 67.1859C71.6132 68.1326 71.4277 69.1473 71.4277 70.1721V171.097C71.4277 172.122 71.6132 173.136 71.9734 174.083C72.3337 175.03 72.8618 175.89 73.5275 176.615C74.1932 177.339 74.9835 177.914 75.8533 178.306C76.7231 178.698 77.6553 178.9 78.5968 178.9H102.981C102.167 175.224 101.154 169.482 102.179 165.49L102.179 165.487L102.18 165.489C102.227 165.303 102.278 165.119 102.335 164.941C103.04 162.35 103.274 159.635 103.026 156.946C103.479 154.649 103.479 152.274 103.026 149.977C102.273 146.151 101.746 142.392 101.746 142.392C101.746 142.392 101.331 137.337 101.693 134.237C101.701 134.169 101.71 134.105 101.719 134.038C101.591 134.007 101.519 133.988 101.519 133.988C101.519 133.988 102.587 128.727 102.963 125.379C103.052 124.589 103.169 123.587 103.296 122.518C102.948 122.456 102.606 122.361 102.273 122.236C98.883 120.938 97.8158 109.185 97.8158 109.185V105.461C97.8158 105.461 96.6859 99.756 100.641 97.2279C104.449 94.7934 105.969 94.1271 106.077 94.0811C106.106 94.0585 106.134 94.038 106.164 94.013C106.594 93.6453 106.935 93.1681 107.156 92.6233C107.161 92.5295 107.163 92.4362 107.16 92.3436C107.095 91.0087 106.242 89.7946 105.432 88.7353C104.741 87.8318 104.05 86.9283 103.359 86.0248C103.122 85.7556 102.94 85.4352 102.825 85.0844C102.781 84.8907 102.762 84.6915 102.768 84.4922C102.768 84.4185 102.768 84.3449 102.77 84.2713C102.781 83.5976 102.798 82.9241 102.82 82.2507C102.839 81.6624 102.976 80.9201 103.505 80.7992C103.78 80.7363 104.145 80.846 104.29 80.584C104.339 80.476 104.351 80.3528 104.325 80.2358C104.324 80.2446 104.323 80.2537 104.321 80.2623C104.319 80.2513 104.317 80.2403 104.315 80.2295C104.206 79.7578 104.141 79.2755 104.119 78.7896C104.113 78.5704 104.142 78.3517 104.204 78.143C104.511 77.1664 105.567 76.7657 106.5 76.5814C107.433 76.3972 108.48 76.2386 109.066 75.4269C109.222 75.1574 109.392 74.8972 109.575 74.6477C109.844 74.3819 110.174 74.2007 110.53 74.1235C111.688 73.8045 112.911 73.9227 114 74.4587C114.451 74.6829 114.904 74.9848 115.399 74.9506C115.914 74.9152 116.353 74.5212 116.861 74.4254C117.681 74.2706 118.465 74.9393 118.869 75.7313C119.125 76.235 119.254 76.8043 119.24 77.3801C119.25 77.9534 119.06 78.5095 118.708 78.9364C118.356 79.344 117.829 79.6239 117.682 80.1607C117.623 80.3792 117.637 80.6145 117.584 80.8351C117.577 80.8627 117.567 80.8884 117.558 80.9151C117.568 80.9288 117.578 80.9417 117.588 80.9555C118.205 81.8409 118.619 82.8742 118.794 83.9691C118.97 85.064 118.903 86.1888 118.598 87.2495C118.293 88.3103 117.759 89.2763 117.041 90.0669C116.324 90.8575 115.443 91.4498 114.472 91.7943C114.469 91.8634 114.467 91.9326 114.467 92.0021C114.449 92.4328 114.516 92.8628 114.664 93.2629C114.812 93.663 115.037 94.0239 115.324 94.3211L120.917 96.8179C120.917 96.8179 124.284 96.3736 125.499 101.843C125.694 102.753 125.764 103.688 125.707 104.62C125.663 105.444 125.766 106.896 126.629 108.775C128.01 111.782 127.697 118.683 124.872 119.366C122.196 120.013 121.155 119.741 121.053 119.711L121.047 119.832C121.091 121.127 121.514 132.295 123.051 133.647C123.476 134.021 123.395 134.273 123.046 134.443L123.047 134.444C123.047 134.444 123.05 134.516 123.057 134.645C123.103 135.462 123.34 138.573 124.369 140.343C125.562 142.392 125.437 154.214 125.437 154.214L126.252 161.183C126.252 161.183 125.751 165.488 126.252 166.239C126.538 166.665 126.883 173.265 127.129 178.9H148.097C149.999 178.9 151.822 178.078 153.167 176.615C154.511 175.151 155.266 173.166 155.266 171.097V70.1721C155.266 69.1473 155.081 68.1326 154.721 67.1859C154.36 66.2392 153.832 65.3789 153.167 64.6543C152.501 63.9297 151.711 63.355 150.841 62.9628C149.971 62.5707 149.039 62.3688 148.097 62.3688Z" fill="#FF1478"/>
<path d="M139.878 54.1623H70.377C66.4177 54.1623 63.208 57.6559 63.208 61.9655V162.89C63.208 167.2 66.4177 170.694 70.377 170.694H139.878C143.837 170.694 147.047 167.2 147.047 162.89V61.9655C147.047 57.6559 143.837 54.1623 139.878 54.1623Z" stroke="#3F3D56" stroke-miterlimit="10"/>
<path d="M252.606 10.4503C251.316 10.5227 250.071 10.9511 249.012 11.6873C247.953 12.4235 247.122 13.4385 246.61 14.6184C245.111 18.2217 247.041 22.4543 249.939 25.0818C252.837 27.7093 256.559 29.2112 259.941 31.1854C264.484 33.8369 268.566 37.5177 270.839 42.2426C273.112 46.9675 273.354 52.8203 270.682 57.3342C268.202 61.5239 263.693 64.0314 259.392 66.3439" stroke="#3F3D56" stroke-miterlimit="10"/>
<path d="M256.425 13.3223C259.35 13.3223 261.721 12.1771 261.721 10.7644C261.721 9.35175 259.35 8.20654 256.425 8.20654C253.5 8.20654 251.128 9.35175 251.128 10.7644C251.128 12.1771 253.5 13.3223 256.425 13.3223Z" fill="#FF1478"/>
<path d="M260.662 30.1742C263.587 30.1742 265.958 29.029 265.958 27.6163C265.958 26.2036 263.587 25.0584 260.662 25.0584C257.737 25.0584 255.365 26.2036 255.365 27.6163C255.365 29.029 257.737 30.1742 260.662 30.1742Z" fill="#FF1478"/>
<path d="M250.977 32.8828C253.902 32.8828 256.274 31.7376 256.274 30.3249C256.274 28.9122 253.902 27.767 250.977 27.767C248.052 27.767 245.681 28.9122 245.681 30.3249C245.681 31.7376 248.052 32.8828 250.977 32.8828Z" fill="#FF1478"/>
<path d="M266.111 47.0265C269.036 47.0265 271.407 45.8812 271.407 44.4685C271.407 43.0559 269.036 41.9106 266.111 41.9106C263.186 41.9106 260.814 43.0559 260.814 44.4685C260.814 45.8812 263.186 47.0265 266.111 47.0265Z" fill="#FF1478"/>
<path d="M276.702 47.0265C279.627 47.0265 281.999 45.8812 281.999 44.4685C281.999 43.0559 279.627 41.9106 276.702 41.9106C273.777 41.9106 271.406 43.0559 271.406 44.4685C271.406 45.8812 273.777 47.0265 276.702 47.0265Z" fill="#FF1478"/>
</svg>
