<svg width="320" height="193" viewBox="0 0 320 193" fill="none" xmlns="http://www.w3.org/2000/svg">
<g clip-path="url(#clip0)">
<path d="M222.757 26.2611C117.424 -36.9327 61.8692 56.141 61.0135 56.1254C36.7025 55.6806 20.1861 72.2681 15.6118 91.6782C10.1464 114.87 18.2565 131.116 20.5002 135.61L20.5771 135.764C21.1248 136.862 20.9496 138.164 21.1664 139.319C27.9538 175.483 54.4036 182.694 69.5274 182.694L269.577 182.694C271.705 182.694 299.371 179.859 303.628 145.719C303.77 144.584 304.868 143.828 305.421 142.884C324.408 110.48 291.921 79.4992 291.568 76.0445C283.055 -7.14949 223.99 27.0009 222.757 26.2611Z" fill="#FF1478" fill-opacity="0.2"/>
<path d="M250.692 0H78.9736V193.408H250.692V0Z" fill="url(#paint0_linear)"/>
<path d="M247.807 3.72754H81.5713V189.974H247.807V3.72754Z" fill="white"/>
<path opacity="0.2" d="M159.204 34.385H64.8311V93.9833H159.204V34.385Z" fill="#FF1478"/>
<path d="M156.03 26.0718H47.8047V87.1019H156.03V26.0718Z" fill="url(#paint1_linear)"/>
<path d="M154.588 34.9558H48.96V85.6732H154.588V34.9558Z" fill="white"/>
<path d="M92.8244 39.2541H56.1729V77.6493H92.8244V39.2541Z" fill="url(#paint2_linear)"/>
<path d="M91.9617 40.1138H57.3286V76.7899H91.9617V40.1138Z" fill="#FF1478"/>
<path d="M84.3171 54.5973C84.0586 52.4188 83.6709 50.2351 82.8309 48.1977C81.991 46.1603 80.6418 44.2871 78.7628 43.1298C78.0932 42.6841 77.3183 42.4188 76.5143 42.36C75.0437 42.3087 73.6842 43.294 72.9269 44.5463C72.6705 44.98 72.4467 45.432 72.2575 45.8985C71.5568 46.017 70.9166 46.3658 70.4394 46.8888C69.9623 47.4118 69.676 48.0788 69.6264 48.7827C68.0733 49.4396 66.7662 50.5627 65.8885 51.9944C65.0109 53.4262 64.6067 55.0948 64.7327 56.7662C64.8587 58.4376 65.5085 60.0279 66.591 61.3141C67.6736 62.6002 69.1345 63.5176 70.7688 63.9376V65.3053C69.037 65.7548 67.5036 66.7603 66.4074 68.1652C65.3111 69.5701 64.7137 71.2955 64.708 73.0726V76.7985H80.8693V73.0675C80.8639 71.291 80.2672 69.5662 79.1719 68.1614C78.0767 66.7566 76.5445 65.7506 74.8136 65.3002V63.9325C76.5483 63.4872 78.0848 62.4825 79.1818 61.0761C80.2788 59.6697 80.8742 57.9414 80.8744 56.1626C80.8744 56.1446 80.8744 56.1241 80.8744 56.1061L81.7842 58.1153C82.65 60.0296 83.5365 62.0824 83.1979 64.1557C84.8572 61.3331 84.7202 57.8408 84.3171 54.5973Z" fill="white"/>
<path d="M154.588 27.2203H48.96V34.9568H154.588V27.2203Z" fill="#FF1478"/>
<path d="M146.217 50.8575H106.103V53.4364H146.217V50.8575Z" fill="#E0E0E0"/>
<path d="M146.217 61.7498H106.103V64.3286H146.217V61.7498Z" fill="#F5F5F5"/>
<path opacity="0.2" d="M129.479 56.3029H105.814V58.8817H129.479V56.3029Z" fill="#FF1478"/>
<path opacity="0.2" d="M121.976 67.1924H105.814V69.7712H121.976V67.1924Z" fill="#69F0AE"/>
<path d="M141.021 67.1924H124.86V69.7712H141.021V67.1924Z" fill="#69F0AE"/>
<path d="M235.107 107.735H95.7119V112.606H235.107V107.735Z" fill="#E0E0E0"/>
<path d="M142.177 118.337H95.7119V123.208H142.177V118.337Z" fill="#E0E0E0"/>
<path d="M235.107 118.337H188.642V123.208H235.107V118.337Z" fill="#69F0AE"/>
<path d="M235.107 128.939H95.7119V133.81H235.107V128.939Z" fill="#E0E0E0"/>
<path d="M235.107 139.544H95.7119V144.414H235.107V139.544Z" fill="#E0E0E0"/>
<path d="M109.855 149.571H95.1357V155.588H109.855V149.571Z" fill="url(#paint3_linear)"/>
<path d="M109.565 150.142H95.7119V155.012H109.565V150.142Z" fill="#FF1478"/>
<path d="M171.904 150.142H158.051V155.012H171.904V150.142Z" fill="#69F0AE"/>
<path d="M235.107 150.142H221.253V155.012H235.107V150.142Z" fill="#69F0AE"/>
<path d="M236.839 165.903H154.588V184.243H236.839V165.903Z" fill="url(#paint4_linear)"/>
<path d="M235.106 167.907H156.029V181.949H235.106V167.907Z" fill="#FF1478"/>
<path opacity="0.2" d="M235.106 167.907H156.029V181.949H235.106V167.907Z" fill="black"/>
<path d="M236.838 23.4955H184.602V63.0378H236.838V23.4955Z" fill="url(#paint5_linear)"/>
<path d="M235.111 26.0718H186.625V60.4564H235.111V26.0718Z" fill="#FF1478"/>
<path opacity="0.2" d="M235.111 26.0718H186.625V60.4564H235.111V26.0718Z" fill="white"/>
</g>
<defs>
<linearGradient id="paint0_linear" x1="164.833" y1="193.408" x2="164.833" y2="0" gradientUnits="userSpaceOnUse">
<stop stop-color="#808080" stop-opacity="0.25"/>
<stop offset="0.54" stop-color="#808080" stop-opacity="0.12"/>
<stop offset="1" stop-color="#808080" stop-opacity="0.1"/>
</linearGradient>
<linearGradient id="paint1_linear" x1="22707" y1="20743.3" x2="22707" y2="6227.34" gradientUnits="userSpaceOnUse">
<stop stop-color="#808080" stop-opacity="0.25"/>
<stop offset="0.54" stop-color="#808080" stop-opacity="0.12"/>
<stop offset="1" stop-color="#808080" stop-opacity="0.1"/>
</linearGradient>
<linearGradient id="paint2_linear" x1="1242.95" y1="8785.69" x2="6440.88" y2="8785.69" gradientUnits="userSpaceOnUse">
<stop stop-color="#808080" stop-opacity="0.25"/>
<stop offset="0.54" stop-color="#808080" stop-opacity="0.12"/>
<stop offset="1" stop-color="#808080" stop-opacity="0.1"/>
</linearGradient>
<linearGradient id="paint3_linear" x1="3209.68" y1="3798.1" x2="3209.68" y2="3657" gradientUnits="userSpaceOnUse">
<stop stop-color="#808080" stop-opacity="0.25"/>
<stop offset="0.54" stop-color="#808080" stop-opacity="0.12"/>
<stop offset="1" stop-color="#808080" stop-opacity="0.1"/>
</linearGradient>
<linearGradient id="paint4_linear" x1="47225.2" y1="13333.5" x2="47225.2" y2="12023" gradientUnits="userSpaceOnUse">
<stop stop-color="#808080" stop-opacity="0.25"/>
<stop offset="0.54" stop-color="#808080" stop-opacity="0.12"/>
<stop offset="1" stop-color="#808080" stop-opacity="0.1"/>
</linearGradient>
<linearGradient id="paint5_linear" x1="33111.3" y1="9737.46" x2="33111.3" y2="3643.99" gradientUnits="userSpaceOnUse">
<stop stop-color="#808080" stop-opacity="0.25"/>
<stop offset="0.54" stop-color="#808080" stop-opacity="0.12"/>
<stop offset="1" stop-color="#808080" stop-opacity="0.1"/>
</linearGradient>
<clipPath id="clip0">
<rect width="320" height="193" fill="white"/>
</clipPath>
</defs>
</svg>
